<mxfile host="app.diagrams.net" modified="2023-05-20T06:40:12.455Z" agent="Mozilla/5.0 (Windows NT 10.0; Win64; x64) AppleWebKit/537.36 (KHTML, like Gecko) Chrome/113.0.0.0 Safari/537.36" etag="2_iWB1FjZSgZkorZIKOx" version="21.3.2" type="github">
  <diagram name="페이지-1" id="hswpfj4ctL7NRcdATpn8">
    <mxGraphModel dx="1710" dy="2257" grid="1" gridSize="10" guides="1" tooltips="1" connect="1" arrows="1" fold="1" page="1" pageScale="1" pageWidth="827" pageHeight="1169" math="0" shadow="0">
      <root>
        <mxCell id="0" />
        <mxCell id="1" parent="0" />
        <mxCell id="WgDP39cw4mnOCj2XshCI-1" value="communitys_review" style="shape=table;startSize=30;container=1;collapsible=0;childLayout=tableLayout;fixedRows=1;rowLines=0;fontStyle=0;strokeColor=default;fontSize=16;rounded=1;align=center;fillColor=#CCFFCC;" parent="1" vertex="1">
          <mxGeometry x="938.57" y="270" width="269" height="234" as="geometry" />
        </mxCell>
        <mxCell id="WgDP39cw4mnOCj2XshCI-2" value="" style="shape=tableRow;horizontal=0;startSize=0;swimlaneHead=0;swimlaneBody=0;top=0;left=0;bottom=0;right=0;collapsible=0;dropTarget=0;fillColor=none;points=[[0,0.5],[1,0.5]];portConstraint=eastwest;strokeColor=inherit;fontSize=16;align=center;" parent="WgDP39cw4mnOCj2XshCI-1" vertex="1">
          <mxGeometry y="30" width="269" height="24" as="geometry" />
        </mxCell>
        <mxCell id="WgDP39cw4mnOCj2XshCI-3" value="id" style="shape=partialRectangle;html=1;whiteSpace=wrap;connectable=0;fillColor=none;top=0;left=0;bottom=0;right=0;overflow=hidden;pointerEvents=1;strokeColor=inherit;fontSize=16;align=center;" parent="WgDP39cw4mnOCj2XshCI-2" vertex="1">
          <mxGeometry width="129" height="24" as="geometry">
            <mxRectangle width="129" height="24" as="alternateBounds" />
          </mxGeometry>
        </mxCell>
        <mxCell id="WgDP39cw4mnOCj2XshCI-4" value="integer" style="shape=partialRectangle;html=1;whiteSpace=wrap;connectable=0;fillColor=none;top=0;left=0;bottom=0;right=0;align=center;spacingLeft=6;overflow=hidden;strokeColor=inherit;fontSize=16;" parent="WgDP39cw4mnOCj2XshCI-2" vertex="1">
          <mxGeometry x="129" width="140" height="24" as="geometry">
            <mxRectangle width="140" height="24" as="alternateBounds" />
          </mxGeometry>
        </mxCell>
        <mxCell id="WgDP39cw4mnOCj2XshCI-5" value="" style="shape=tableRow;horizontal=0;startSize=0;swimlaneHead=0;swimlaneBody=0;top=0;left=0;bottom=0;right=0;collapsible=0;dropTarget=0;fillColor=none;points=[[0,0.5],[1,0.5]];portConstraint=eastwest;strokeColor=inherit;fontSize=16;align=center;" parent="WgDP39cw4mnOCj2XshCI-1" vertex="1">
          <mxGeometry y="54" width="269" height="30" as="geometry" />
        </mxCell>
        <mxCell id="WgDP39cw4mnOCj2XshCI-6" value="user_id" style="shape=partialRectangle;html=1;whiteSpace=wrap;connectable=0;fillColor=none;top=0;left=0;bottom=0;right=0;overflow=hidden;strokeColor=inherit;fontSize=16;align=center;" parent="WgDP39cw4mnOCj2XshCI-5" vertex="1">
          <mxGeometry width="129" height="30" as="geometry">
            <mxRectangle width="129" height="30" as="alternateBounds" />
          </mxGeometry>
        </mxCell>
        <mxCell id="WgDP39cw4mnOCj2XshCI-7" value="integer" style="shape=partialRectangle;html=1;whiteSpace=wrap;connectable=0;fillColor=none;top=0;left=0;bottom=0;right=0;align=center;spacingLeft=6;overflow=hidden;strokeColor=inherit;fontSize=16;" parent="WgDP39cw4mnOCj2XshCI-5" vertex="1">
          <mxGeometry x="129" width="140" height="30" as="geometry">
            <mxRectangle width="140" height="30" as="alternateBounds" />
          </mxGeometry>
        </mxCell>
        <mxCell id="WgDP39cw4mnOCj2XshCI-8" value="" style="shape=tableRow;horizontal=0;startSize=0;swimlaneHead=0;swimlaneBody=0;top=0;left=0;bottom=0;right=0;collapsible=0;dropTarget=0;fillColor=none;points=[[0,0.5],[1,0.5]];portConstraint=eastwest;strokeColor=inherit;fontSize=16;align=center;" parent="WgDP39cw4mnOCj2XshCI-1" vertex="1">
          <mxGeometry y="84" width="269" height="30" as="geometry" />
        </mxCell>
        <mxCell id="WgDP39cw4mnOCj2XshCI-9" value="movie_id" style="shape=partialRectangle;html=1;whiteSpace=wrap;connectable=0;fillColor=none;top=0;left=0;bottom=0;right=0;overflow=hidden;strokeColor=inherit;fontSize=16;align=center;" parent="WgDP39cw4mnOCj2XshCI-8" vertex="1">
          <mxGeometry width="129" height="30" as="geometry">
            <mxRectangle width="129" height="30" as="alternateBounds" />
          </mxGeometry>
        </mxCell>
        <mxCell id="WgDP39cw4mnOCj2XshCI-10" value="integer" style="shape=partialRectangle;html=1;whiteSpace=wrap;connectable=0;fillColor=none;top=0;left=0;bottom=0;right=0;align=center;spacingLeft=6;overflow=hidden;strokeColor=inherit;fontSize=16;" parent="WgDP39cw4mnOCj2XshCI-8" vertex="1">
          <mxGeometry x="129" width="140" height="30" as="geometry">
            <mxRectangle width="140" height="30" as="alternateBounds" />
          </mxGeometry>
        </mxCell>
        <mxCell id="WgDP39cw4mnOCj2XshCI-11" value="" style="shape=tableRow;horizontal=0;startSize=0;swimlaneHead=0;swimlaneBody=0;top=0;left=0;bottom=0;right=0;collapsible=0;dropTarget=0;fillColor=none;points=[[0,0.5],[1,0.5]];portConstraint=eastwest;strokeColor=inherit;fontSize=16;align=center;" parent="WgDP39cw4mnOCj2XshCI-1" vertex="1">
          <mxGeometry y="114" width="269" height="30" as="geometry" />
        </mxCell>
        <mxCell id="WgDP39cw4mnOCj2XshCI-12" value="title" style="shape=partialRectangle;html=1;whiteSpace=wrap;connectable=0;fillColor=none;top=0;left=0;bottom=0;right=0;overflow=hidden;strokeColor=inherit;fontSize=16;align=center;" parent="WgDP39cw4mnOCj2XshCI-11" vertex="1">
          <mxGeometry width="129" height="30" as="geometry">
            <mxRectangle width="129" height="30" as="alternateBounds" />
          </mxGeometry>
        </mxCell>
        <mxCell id="WgDP39cw4mnOCj2XshCI-13" value="varchar" style="shape=partialRectangle;html=1;whiteSpace=wrap;connectable=0;fillColor=none;top=0;left=0;bottom=0;right=0;align=center;spacingLeft=6;overflow=hidden;strokeColor=inherit;fontSize=16;" parent="WgDP39cw4mnOCj2XshCI-11" vertex="1">
          <mxGeometry x="129" width="140" height="30" as="geometry">
            <mxRectangle width="140" height="30" as="alternateBounds" />
          </mxGeometry>
        </mxCell>
        <mxCell id="WgDP39cw4mnOCj2XshCI-14" value="" style="shape=tableRow;horizontal=0;startSize=0;swimlaneHead=0;swimlaneBody=0;top=0;left=0;bottom=0;right=0;collapsible=0;dropTarget=0;fillColor=none;points=[[0,0.5],[1,0.5]];portConstraint=eastwest;strokeColor=inherit;fontSize=16;align=center;" parent="WgDP39cw4mnOCj2XshCI-1" vertex="1">
          <mxGeometry y="144" width="269" height="30" as="geometry" />
        </mxCell>
        <mxCell id="WgDP39cw4mnOCj2XshCI-15" value="content" style="shape=partialRectangle;html=1;whiteSpace=wrap;connectable=0;fillColor=none;top=0;left=0;bottom=0;right=0;overflow=hidden;strokeColor=inherit;fontSize=16;align=center;" parent="WgDP39cw4mnOCj2XshCI-14" vertex="1">
          <mxGeometry width="129" height="30" as="geometry">
            <mxRectangle width="129" height="30" as="alternateBounds" />
          </mxGeometry>
        </mxCell>
        <mxCell id="WgDP39cw4mnOCj2XshCI-16" value="varchar" style="shape=partialRectangle;html=1;whiteSpace=wrap;connectable=0;fillColor=none;top=0;left=0;bottom=0;right=0;align=center;spacingLeft=6;overflow=hidden;strokeColor=inherit;fontSize=16;" parent="WgDP39cw4mnOCj2XshCI-14" vertex="1">
          <mxGeometry x="129" width="140" height="30" as="geometry">
            <mxRectangle width="140" height="30" as="alternateBounds" />
          </mxGeometry>
        </mxCell>
        <mxCell id="WgDP39cw4mnOCj2XshCI-17" value="" style="shape=tableRow;horizontal=0;startSize=0;swimlaneHead=0;swimlaneBody=0;top=0;left=0;bottom=0;right=0;collapsible=0;dropTarget=0;fillColor=none;points=[[0,0.5],[1,0.5]];portConstraint=eastwest;strokeColor=inherit;fontSize=16;align=center;" parent="WgDP39cw4mnOCj2XshCI-1" vertex="1">
          <mxGeometry y="174" width="269" height="30" as="geometry" />
        </mxCell>
        <mxCell id="WgDP39cw4mnOCj2XshCI-18" value="created_at" style="shape=partialRectangle;html=1;whiteSpace=wrap;connectable=0;fillColor=none;top=0;left=0;bottom=0;right=0;overflow=hidden;strokeColor=inherit;fontSize=16;align=center;" parent="WgDP39cw4mnOCj2XshCI-17" vertex="1">
          <mxGeometry width="129" height="30" as="geometry">
            <mxRectangle width="129" height="30" as="alternateBounds" />
          </mxGeometry>
        </mxCell>
        <mxCell id="WgDP39cw4mnOCj2XshCI-19" value="datetime" style="shape=partialRectangle;html=1;whiteSpace=wrap;connectable=0;fillColor=none;top=0;left=0;bottom=0;right=0;align=center;spacingLeft=6;overflow=hidden;strokeColor=inherit;fontSize=16;" parent="WgDP39cw4mnOCj2XshCI-17" vertex="1">
          <mxGeometry x="129" width="140" height="30" as="geometry">
            <mxRectangle width="140" height="30" as="alternateBounds" />
          </mxGeometry>
        </mxCell>
        <mxCell id="WgDP39cw4mnOCj2XshCI-20" value="" style="shape=tableRow;horizontal=0;startSize=0;swimlaneHead=0;swimlaneBody=0;top=0;left=0;bottom=0;right=0;collapsible=0;dropTarget=0;fillColor=none;points=[[0,0.5],[1,0.5]];portConstraint=eastwest;strokeColor=inherit;fontSize=16;align=center;" parent="WgDP39cw4mnOCj2XshCI-1" vertex="1">
          <mxGeometry y="204" width="269" height="30" as="geometry" />
        </mxCell>
        <mxCell id="WgDP39cw4mnOCj2XshCI-21" value="updated_at" style="shape=partialRectangle;html=1;whiteSpace=wrap;connectable=0;fillColor=none;top=0;left=0;bottom=0;right=0;overflow=hidden;strokeColor=inherit;fontSize=16;align=center;" parent="WgDP39cw4mnOCj2XshCI-20" vertex="1">
          <mxGeometry width="129" height="30" as="geometry">
            <mxRectangle width="129" height="30" as="alternateBounds" />
          </mxGeometry>
        </mxCell>
        <mxCell id="WgDP39cw4mnOCj2XshCI-22" value="datetime" style="shape=partialRectangle;html=1;whiteSpace=wrap;connectable=0;fillColor=none;top=0;left=0;bottom=0;right=0;align=center;spacingLeft=6;overflow=hidden;strokeColor=inherit;fontSize=16;" parent="WgDP39cw4mnOCj2XshCI-20" vertex="1">
          <mxGeometry x="129" width="140" height="30" as="geometry">
            <mxRectangle width="140" height="30" as="alternateBounds" />
          </mxGeometry>
        </mxCell>
        <mxCell id="WgDP39cw4mnOCj2XshCI-23" value="communitys_review_reviewcomment" style="shape=table;startSize=30;container=1;collapsible=0;childLayout=tableLayout;fixedRows=1;rowLines=0;fontStyle=0;strokeColor=default;fontSize=16;rounded=1;align=center;fillColor=#CCFFCC;" parent="1" vertex="1">
          <mxGeometry x="937.57" y="10" width="269" height="200" as="geometry" />
        </mxCell>
        <mxCell id="WgDP39cw4mnOCj2XshCI-24" value="" style="shape=tableRow;horizontal=0;startSize=0;swimlaneHead=0;swimlaneBody=0;top=0;left=0;bottom=0;right=0;collapsible=0;dropTarget=0;fillColor=none;points=[[0,0.5],[1,0.5]];portConstraint=eastwest;strokeColor=inherit;fontSize=16;align=center;" parent="WgDP39cw4mnOCj2XshCI-23" vertex="1">
          <mxGeometry y="30" width="269" height="20" as="geometry" />
        </mxCell>
        <mxCell id="WgDP39cw4mnOCj2XshCI-25" value="id" style="shape=partialRectangle;html=1;whiteSpace=wrap;connectable=0;fillColor=none;top=0;left=0;bottom=0;right=0;overflow=hidden;pointerEvents=1;strokeColor=inherit;fontSize=16;align=center;" parent="WgDP39cw4mnOCj2XshCI-24" vertex="1">
          <mxGeometry width="134" height="20" as="geometry">
            <mxRectangle width="134" height="20" as="alternateBounds" />
          </mxGeometry>
        </mxCell>
        <mxCell id="WgDP39cw4mnOCj2XshCI-26" value="integer" style="shape=partialRectangle;html=1;whiteSpace=wrap;connectable=0;fillColor=none;top=0;left=0;bottom=0;right=0;align=center;spacingLeft=6;overflow=hidden;strokeColor=inherit;fontSize=16;" parent="WgDP39cw4mnOCj2XshCI-24" vertex="1">
          <mxGeometry x="134" width="135" height="20" as="geometry">
            <mxRectangle width="135" height="20" as="alternateBounds" />
          </mxGeometry>
        </mxCell>
        <mxCell id="WgDP39cw4mnOCj2XshCI-27" value="" style="shape=tableRow;horizontal=0;startSize=0;swimlaneHead=0;swimlaneBody=0;top=0;left=0;bottom=0;right=0;collapsible=0;dropTarget=0;fillColor=none;points=[[0,0.5],[1,0.5]];portConstraint=eastwest;strokeColor=inherit;fontSize=16;align=center;" parent="WgDP39cw4mnOCj2XshCI-23" vertex="1">
          <mxGeometry y="50" width="269" height="30" as="geometry" />
        </mxCell>
        <mxCell id="WgDP39cw4mnOCj2XshCI-28" value="review_id" style="shape=partialRectangle;html=1;whiteSpace=wrap;connectable=0;fillColor=none;top=0;left=0;bottom=0;right=0;overflow=hidden;strokeColor=inherit;fontSize=16;align=center;" parent="WgDP39cw4mnOCj2XshCI-27" vertex="1">
          <mxGeometry width="134" height="30" as="geometry">
            <mxRectangle width="134" height="30" as="alternateBounds" />
          </mxGeometry>
        </mxCell>
        <mxCell id="WgDP39cw4mnOCj2XshCI-29" value="integer" style="shape=partialRectangle;html=1;whiteSpace=wrap;connectable=0;fillColor=none;top=0;left=0;bottom=0;right=0;align=center;spacingLeft=6;overflow=hidden;strokeColor=inherit;fontSize=16;" parent="WgDP39cw4mnOCj2XshCI-27" vertex="1">
          <mxGeometry x="134" width="135" height="30" as="geometry">
            <mxRectangle width="135" height="30" as="alternateBounds" />
          </mxGeometry>
        </mxCell>
        <mxCell id="WgDP39cw4mnOCj2XshCI-30" value="" style="shape=tableRow;horizontal=0;startSize=0;swimlaneHead=0;swimlaneBody=0;top=0;left=0;bottom=0;right=0;collapsible=0;dropTarget=0;fillColor=none;points=[[0,0.5],[1,0.5]];portConstraint=eastwest;strokeColor=inherit;fontSize=16;align=center;" parent="WgDP39cw4mnOCj2XshCI-23" vertex="1">
          <mxGeometry y="80" width="269" height="30" as="geometry" />
        </mxCell>
        <mxCell id="WgDP39cw4mnOCj2XshCI-31" value="content" style="shape=partialRectangle;html=1;whiteSpace=wrap;connectable=0;fillColor=none;top=0;left=0;bottom=0;right=0;overflow=hidden;strokeColor=inherit;fontSize=16;align=center;" parent="WgDP39cw4mnOCj2XshCI-30" vertex="1">
          <mxGeometry width="134" height="30" as="geometry">
            <mxRectangle width="134" height="30" as="alternateBounds" />
          </mxGeometry>
        </mxCell>
        <mxCell id="WgDP39cw4mnOCj2XshCI-32" value="text" style="shape=partialRectangle;html=1;whiteSpace=wrap;connectable=0;fillColor=none;top=0;left=0;bottom=0;right=0;align=center;spacingLeft=6;overflow=hidden;strokeColor=inherit;fontSize=16;" parent="WgDP39cw4mnOCj2XshCI-30" vertex="1">
          <mxGeometry x="134" width="135" height="30" as="geometry">
            <mxRectangle width="135" height="30" as="alternateBounds" />
          </mxGeometry>
        </mxCell>
        <mxCell id="WgDP39cw4mnOCj2XshCI-33" value="" style="shape=tableRow;horizontal=0;startSize=0;swimlaneHead=0;swimlaneBody=0;top=0;left=0;bottom=0;right=0;collapsible=0;dropTarget=0;fillColor=none;points=[[0,0.5],[1,0.5]];portConstraint=eastwest;strokeColor=inherit;fontSize=16;align=center;" parent="WgDP39cw4mnOCj2XshCI-23" vertex="1">
          <mxGeometry y="110" width="269" height="30" as="geometry" />
        </mxCell>
        <mxCell id="WgDP39cw4mnOCj2XshCI-34" value="user_id" style="shape=partialRectangle;html=1;whiteSpace=wrap;connectable=0;fillColor=none;top=0;left=0;bottom=0;right=0;overflow=hidden;strokeColor=inherit;fontSize=16;align=center;" parent="WgDP39cw4mnOCj2XshCI-33" vertex="1">
          <mxGeometry width="134" height="30" as="geometry">
            <mxRectangle width="134" height="30" as="alternateBounds" />
          </mxGeometry>
        </mxCell>
        <mxCell id="WgDP39cw4mnOCj2XshCI-35" value="integer" style="shape=partialRectangle;html=1;whiteSpace=wrap;connectable=0;fillColor=none;top=0;left=0;bottom=0;right=0;align=center;spacingLeft=6;overflow=hidden;strokeColor=inherit;fontSize=16;" parent="WgDP39cw4mnOCj2XshCI-33" vertex="1">
          <mxGeometry x="134" width="135" height="30" as="geometry">
            <mxRectangle width="135" height="30" as="alternateBounds" />
          </mxGeometry>
        </mxCell>
        <mxCell id="WgDP39cw4mnOCj2XshCI-36" value="" style="shape=tableRow;horizontal=0;startSize=0;swimlaneHead=0;swimlaneBody=0;top=0;left=0;bottom=0;right=0;collapsible=0;dropTarget=0;fillColor=none;points=[[0,0.5],[1,0.5]];portConstraint=eastwest;strokeColor=inherit;fontSize=16;align=center;" parent="WgDP39cw4mnOCj2XshCI-23" vertex="1">
          <mxGeometry y="140" width="269" height="30" as="geometry" />
        </mxCell>
        <mxCell id="WgDP39cw4mnOCj2XshCI-37" value="created_at" style="shape=partialRectangle;html=1;whiteSpace=wrap;connectable=0;fillColor=none;top=0;left=0;bottom=0;right=0;overflow=hidden;strokeColor=inherit;fontSize=16;align=center;" parent="WgDP39cw4mnOCj2XshCI-36" vertex="1">
          <mxGeometry width="134" height="30" as="geometry">
            <mxRectangle width="134" height="30" as="alternateBounds" />
          </mxGeometry>
        </mxCell>
        <mxCell id="WgDP39cw4mnOCj2XshCI-38" value="datetime" style="shape=partialRectangle;html=1;whiteSpace=wrap;connectable=0;fillColor=none;top=0;left=0;bottom=0;right=0;align=center;spacingLeft=6;overflow=hidden;strokeColor=inherit;fontSize=16;" parent="WgDP39cw4mnOCj2XshCI-36" vertex="1">
          <mxGeometry x="134" width="135" height="30" as="geometry">
            <mxRectangle width="135" height="30" as="alternateBounds" />
          </mxGeometry>
        </mxCell>
        <mxCell id="WgDP39cw4mnOCj2XshCI-39" value="" style="shape=tableRow;horizontal=0;startSize=0;swimlaneHead=0;swimlaneBody=0;top=0;left=0;bottom=0;right=0;collapsible=0;dropTarget=0;fillColor=none;points=[[0,0.5],[1,0.5]];portConstraint=eastwest;strokeColor=inherit;fontSize=16;align=center;" parent="WgDP39cw4mnOCj2XshCI-23" vertex="1">
          <mxGeometry y="170" width="269" height="30" as="geometry" />
        </mxCell>
        <mxCell id="WgDP39cw4mnOCj2XshCI-40" value="updated_at" style="shape=partialRectangle;html=1;whiteSpace=wrap;connectable=0;fillColor=none;top=0;left=0;bottom=0;right=0;overflow=hidden;strokeColor=inherit;fontSize=16;align=center;" parent="WgDP39cw4mnOCj2XshCI-39" vertex="1">
          <mxGeometry width="134" height="30" as="geometry">
            <mxRectangle width="134" height="30" as="alternateBounds" />
          </mxGeometry>
        </mxCell>
        <mxCell id="WgDP39cw4mnOCj2XshCI-41" value="datetime" style="shape=partialRectangle;html=1;whiteSpace=wrap;connectable=0;fillColor=none;top=0;left=0;bottom=0;right=0;align=center;spacingLeft=6;overflow=hidden;strokeColor=inherit;fontSize=16;" parent="WgDP39cw4mnOCj2XshCI-39" vertex="1">
          <mxGeometry x="134" width="135" height="30" as="geometry">
            <mxRectangle width="135" height="30" as="alternateBounds" />
          </mxGeometry>
        </mxCell>
        <mxCell id="WgDP39cw4mnOCj2XshCI-42" value="communitys_playlist_like" style="shape=table;startSize=30;container=1;collapsible=0;childLayout=tableLayout;fixedRows=1;rowLines=0;fontStyle=0;strokeColor=default;fontSize=16;rounded=1;align=center;fillColor=#CCFFCC;" parent="1" vertex="1">
          <mxGeometry x="1290" y="-100" width="230" height="114" as="geometry" />
        </mxCell>
        <mxCell id="WgDP39cw4mnOCj2XshCI-43" value="" style="shape=tableRow;horizontal=0;startSize=0;swimlaneHead=0;swimlaneBody=0;top=0;left=0;bottom=0;right=0;collapsible=0;dropTarget=0;fillColor=none;points=[[0,0.5],[1,0.5]];portConstraint=eastwest;strokeColor=inherit;fontSize=16;align=center;" parent="WgDP39cw4mnOCj2XshCI-42" vertex="1">
          <mxGeometry y="30" width="230" height="24" as="geometry" />
        </mxCell>
        <mxCell id="WgDP39cw4mnOCj2XshCI-44" value="id" style="shape=partialRectangle;html=1;whiteSpace=wrap;connectable=0;fillColor=none;top=0;left=0;bottom=0;right=0;overflow=hidden;pointerEvents=1;strokeColor=inherit;fontSize=16;align=center;" parent="WgDP39cw4mnOCj2XshCI-43" vertex="1">
          <mxGeometry width="111" height="24" as="geometry">
            <mxRectangle width="111" height="24" as="alternateBounds" />
          </mxGeometry>
        </mxCell>
        <mxCell id="WgDP39cw4mnOCj2XshCI-45" value="integer" style="shape=partialRectangle;html=1;whiteSpace=wrap;connectable=0;fillColor=none;top=0;left=0;bottom=0;right=0;align=center;spacingLeft=6;overflow=hidden;strokeColor=inherit;fontSize=16;" parent="WgDP39cw4mnOCj2XshCI-43" vertex="1">
          <mxGeometry x="111" width="119" height="24" as="geometry">
            <mxRectangle width="119" height="24" as="alternateBounds" />
          </mxGeometry>
        </mxCell>
        <mxCell id="WgDP39cw4mnOCj2XshCI-46" value="" style="shape=tableRow;horizontal=0;startSize=0;swimlaneHead=0;swimlaneBody=0;top=0;left=0;bottom=0;right=0;collapsible=0;dropTarget=0;fillColor=none;points=[[0,0.5],[1,0.5]];portConstraint=eastwest;strokeColor=inherit;fontSize=16;align=center;" parent="WgDP39cw4mnOCj2XshCI-42" vertex="1">
          <mxGeometry y="54" width="230" height="30" as="geometry" />
        </mxCell>
        <mxCell id="WgDP39cw4mnOCj2XshCI-47" value="playlist_id" style="shape=partialRectangle;html=1;whiteSpace=wrap;connectable=0;fillColor=none;top=0;left=0;bottom=0;right=0;overflow=hidden;strokeColor=inherit;fontSize=16;align=center;" parent="WgDP39cw4mnOCj2XshCI-46" vertex="1">
          <mxGeometry width="111" height="30" as="geometry">
            <mxRectangle width="111" height="30" as="alternateBounds" />
          </mxGeometry>
        </mxCell>
        <mxCell id="WgDP39cw4mnOCj2XshCI-48" value="varchar" style="shape=partialRectangle;html=1;whiteSpace=wrap;connectable=0;fillColor=none;top=0;left=0;bottom=0;right=0;align=center;spacingLeft=6;overflow=hidden;strokeColor=inherit;fontSize=16;" parent="WgDP39cw4mnOCj2XshCI-46" vertex="1">
          <mxGeometry x="111" width="119" height="30" as="geometry">
            <mxRectangle width="119" height="30" as="alternateBounds" />
          </mxGeometry>
        </mxCell>
        <mxCell id="WgDP39cw4mnOCj2XshCI-49" value="" style="shape=tableRow;horizontal=0;startSize=0;swimlaneHead=0;swimlaneBody=0;top=0;left=0;bottom=0;right=0;collapsible=0;dropTarget=0;fillColor=none;points=[[0,0.5],[1,0.5]];portConstraint=eastwest;strokeColor=inherit;fontSize=16;align=center;" parent="WgDP39cw4mnOCj2XshCI-42" vertex="1">
          <mxGeometry y="84" width="230" height="30" as="geometry" />
        </mxCell>
        <mxCell id="WgDP39cw4mnOCj2XshCI-50" value="user_id" style="shape=partialRectangle;html=1;whiteSpace=wrap;connectable=0;fillColor=none;top=0;left=0;bottom=0;right=0;overflow=hidden;strokeColor=inherit;fontSize=16;align=center;" parent="WgDP39cw4mnOCj2XshCI-49" vertex="1">
          <mxGeometry width="111" height="30" as="geometry">
            <mxRectangle width="111" height="30" as="alternateBounds" />
          </mxGeometry>
        </mxCell>
        <mxCell id="WgDP39cw4mnOCj2XshCI-51" value="integer" style="shape=partialRectangle;html=1;whiteSpace=wrap;connectable=0;fillColor=none;top=0;left=0;bottom=0;right=0;align=center;spacingLeft=6;overflow=hidden;strokeColor=inherit;fontSize=16;" parent="WgDP39cw4mnOCj2XshCI-49" vertex="1">
          <mxGeometry x="111" width="119" height="30" as="geometry">
            <mxRectangle width="119" height="30" as="alternateBounds" />
          </mxGeometry>
        </mxCell>
        <mxCell id="WgDP39cw4mnOCj2XshCI-52" value="movies_total_movies" style="shape=table;startSize=30;container=1;collapsible=0;childLayout=tableLayout;fixedRows=1;rowLines=0;fontStyle=0;strokeColor=default;fontSize=16;rounded=1;align=center;shadow=0;fillColor=#E6D0DE;" parent="1" vertex="1">
          <mxGeometry x="541" y="-209" width="242" height="354" as="geometry" />
        </mxCell>
        <mxCell id="WgDP39cw4mnOCj2XshCI-53" value="" style="shape=tableRow;horizontal=0;startSize=0;swimlaneHead=0;swimlaneBody=0;top=0;left=0;bottom=0;right=0;collapsible=0;dropTarget=0;fillColor=none;points=[[0,0.5],[1,0.5]];portConstraint=eastwest;strokeColor=inherit;fontSize=16;align=center;" parent="WgDP39cw4mnOCj2XshCI-52" vertex="1">
          <mxGeometry y="30" width="242" height="24" as="geometry" />
        </mxCell>
        <mxCell id="WgDP39cw4mnOCj2XshCI-54" value="id" style="shape=partialRectangle;html=1;whiteSpace=wrap;connectable=0;fillColor=none;top=0;left=0;bottom=0;right=0;overflow=hidden;pointerEvents=1;strokeColor=inherit;fontSize=16;align=center;" parent="WgDP39cw4mnOCj2XshCI-53" vertex="1">
          <mxGeometry width="119" height="24" as="geometry">
            <mxRectangle width="119" height="24" as="alternateBounds" />
          </mxGeometry>
        </mxCell>
        <mxCell id="WgDP39cw4mnOCj2XshCI-55" value="integer" style="shape=partialRectangle;html=1;whiteSpace=wrap;connectable=0;fillColor=none;top=0;left=0;bottom=0;right=0;align=center;spacingLeft=6;overflow=hidden;strokeColor=inherit;fontSize=16;" parent="WgDP39cw4mnOCj2XshCI-53" vertex="1">
          <mxGeometry x="119" width="123" height="24" as="geometry">
            <mxRectangle width="123" height="24" as="alternateBounds" />
          </mxGeometry>
        </mxCell>
        <mxCell id="WgDP39cw4mnOCj2XshCI-56" value="" style="shape=tableRow;horizontal=0;startSize=0;swimlaneHead=0;swimlaneBody=0;top=0;left=0;bottom=0;right=0;collapsible=0;dropTarget=0;fillColor=none;points=[[0,0.5],[1,0.5]];portConstraint=eastwest;strokeColor=inherit;fontSize=16;align=center;" parent="WgDP39cw4mnOCj2XshCI-52" vertex="1">
          <mxGeometry y="54" width="242" height="30" as="geometry" />
        </mxCell>
        <mxCell id="WgDP39cw4mnOCj2XshCI-57" value="movie_id" style="shape=partialRectangle;html=1;whiteSpace=wrap;connectable=0;fillColor=none;top=0;left=0;bottom=0;right=0;overflow=hidden;strokeColor=inherit;fontSize=16;align=center;" parent="WgDP39cw4mnOCj2XshCI-56" vertex="1">
          <mxGeometry width="119" height="30" as="geometry">
            <mxRectangle width="119" height="30" as="alternateBounds" />
          </mxGeometry>
        </mxCell>
        <mxCell id="WgDP39cw4mnOCj2XshCI-58" value="Integer(PK)" style="shape=partialRectangle;html=1;whiteSpace=wrap;connectable=0;fillColor=none;top=0;left=0;bottom=0;right=0;align=center;spacingLeft=6;overflow=hidden;strokeColor=inherit;fontSize=16;" parent="WgDP39cw4mnOCj2XshCI-56" vertex="1">
          <mxGeometry x="119" width="123" height="30" as="geometry">
            <mxRectangle width="123" height="30" as="alternateBounds" />
          </mxGeometry>
        </mxCell>
        <mxCell id="WgDP39cw4mnOCj2XshCI-239" value="" style="shape=tableRow;horizontal=0;startSize=0;swimlaneHead=0;swimlaneBody=0;top=0;left=0;bottom=0;right=0;collapsible=0;dropTarget=0;fillColor=none;points=[[0,0.5],[1,0.5]];portConstraint=eastwest;strokeColor=inherit;fontSize=16;align=center;" parent="WgDP39cw4mnOCj2XshCI-52" vertex="1">
          <mxGeometry y="84" width="242" height="30" as="geometry" />
        </mxCell>
        <mxCell id="WgDP39cw4mnOCj2XshCI-240" value="title" style="shape=partialRectangle;html=1;whiteSpace=wrap;connectable=0;fillColor=none;top=0;left=0;bottom=0;right=0;overflow=hidden;strokeColor=inherit;fontSize=16;align=center;" parent="WgDP39cw4mnOCj2XshCI-239" vertex="1">
          <mxGeometry width="119" height="30" as="geometry">
            <mxRectangle width="119" height="30" as="alternateBounds" />
          </mxGeometry>
        </mxCell>
        <mxCell id="WgDP39cw4mnOCj2XshCI-241" value="Char(100)" style="shape=partialRectangle;html=1;whiteSpace=wrap;connectable=0;fillColor=none;top=0;left=0;bottom=0;right=0;align=center;spacingLeft=6;overflow=hidden;strokeColor=inherit;fontSize=16;" parent="WgDP39cw4mnOCj2XshCI-239" vertex="1">
          <mxGeometry x="119" width="123" height="30" as="geometry">
            <mxRectangle width="123" height="30" as="alternateBounds" />
          </mxGeometry>
        </mxCell>
        <mxCell id="WgDP39cw4mnOCj2XshCI-59" value="" style="shape=tableRow;horizontal=0;startSize=0;swimlaneHead=0;swimlaneBody=0;top=0;left=0;bottom=0;right=0;collapsible=0;dropTarget=0;fillColor=none;points=[[0,0.5],[1,0.5]];portConstraint=eastwest;strokeColor=inherit;fontSize=16;align=center;" parent="WgDP39cw4mnOCj2XshCI-52" vertex="1">
          <mxGeometry y="114" width="242" height="30" as="geometry" />
        </mxCell>
        <mxCell id="WgDP39cw4mnOCj2XshCI-60" value="release_data" style="shape=partialRectangle;html=1;whiteSpace=wrap;connectable=0;fillColor=none;top=0;left=0;bottom=0;right=0;overflow=hidden;strokeColor=inherit;fontSize=16;align=center;" parent="WgDP39cw4mnOCj2XshCI-59" vertex="1">
          <mxGeometry width="119" height="30" as="geometry">
            <mxRectangle width="119" height="30" as="alternateBounds" />
          </mxGeometry>
        </mxCell>
        <mxCell id="WgDP39cw4mnOCj2XshCI-61" value="Date" style="shape=partialRectangle;html=1;whiteSpace=wrap;connectable=0;fillColor=none;top=0;left=0;bottom=0;right=0;align=center;spacingLeft=6;overflow=hidden;strokeColor=inherit;fontSize=16;" parent="WgDP39cw4mnOCj2XshCI-59" vertex="1">
          <mxGeometry x="119" width="123" height="30" as="geometry">
            <mxRectangle width="123" height="30" as="alternateBounds" />
          </mxGeometry>
        </mxCell>
        <mxCell id="WgDP39cw4mnOCj2XshCI-62" value="" style="shape=tableRow;horizontal=0;startSize=0;swimlaneHead=0;swimlaneBody=0;top=0;left=0;bottom=0;right=0;collapsible=0;dropTarget=0;fillColor=none;points=[[0,0.5],[1,0.5]];portConstraint=eastwest;strokeColor=inherit;fontSize=16;align=center;" parent="WgDP39cw4mnOCj2XshCI-52" vertex="1">
          <mxGeometry y="144" width="242" height="30" as="geometry" />
        </mxCell>
        <mxCell id="WgDP39cw4mnOCj2XshCI-63" value="overview" style="shape=partialRectangle;html=1;whiteSpace=wrap;connectable=0;fillColor=none;top=0;left=0;bottom=0;right=0;overflow=hidden;strokeColor=inherit;fontSize=16;align=center;" parent="WgDP39cw4mnOCj2XshCI-62" vertex="1">
          <mxGeometry width="119" height="30" as="geometry">
            <mxRectangle width="119" height="30" as="alternateBounds" />
          </mxGeometry>
        </mxCell>
        <mxCell id="WgDP39cw4mnOCj2XshCI-64" value="Text" style="shape=partialRectangle;html=1;whiteSpace=wrap;connectable=0;fillColor=none;top=0;left=0;bottom=0;right=0;align=center;spacingLeft=6;overflow=hidden;strokeColor=inherit;fontSize=16;" parent="WgDP39cw4mnOCj2XshCI-62" vertex="1">
          <mxGeometry x="119" width="123" height="30" as="geometry">
            <mxRectangle width="123" height="30" as="alternateBounds" />
          </mxGeometry>
        </mxCell>
        <mxCell id="WgDP39cw4mnOCj2XshCI-65" value="" style="shape=tableRow;horizontal=0;startSize=0;swimlaneHead=0;swimlaneBody=0;top=0;left=0;bottom=0;right=0;collapsible=0;dropTarget=0;fillColor=none;points=[[0,0.5],[1,0.5]];portConstraint=eastwest;strokeColor=inherit;fontSize=16;align=center;" parent="WgDP39cw4mnOCj2XshCI-52" vertex="1">
          <mxGeometry y="174" width="242" height="30" as="geometry" />
        </mxCell>
        <mxCell id="WgDP39cw4mnOCj2XshCI-66" value="poster_path" style="shape=partialRectangle;html=1;whiteSpace=wrap;connectable=0;fillColor=none;top=0;left=0;bottom=0;right=0;overflow=hidden;strokeColor=inherit;fontSize=16;align=center;" parent="WgDP39cw4mnOCj2XshCI-65" vertex="1">
          <mxGeometry width="119" height="30" as="geometry">
            <mxRectangle width="119" height="30" as="alternateBounds" />
          </mxGeometry>
        </mxCell>
        <mxCell id="WgDP39cw4mnOCj2XshCI-67" value="Text" style="shape=partialRectangle;html=1;whiteSpace=wrap;connectable=0;fillColor=none;top=0;left=0;bottom=0;right=0;align=center;spacingLeft=6;overflow=hidden;strokeColor=inherit;fontSize=16;" parent="WgDP39cw4mnOCj2XshCI-65" vertex="1">
          <mxGeometry x="119" width="123" height="30" as="geometry">
            <mxRectangle width="123" height="30" as="alternateBounds" />
          </mxGeometry>
        </mxCell>
        <mxCell id="WgDP39cw4mnOCj2XshCI-68" value="" style="shape=tableRow;horizontal=0;startSize=0;swimlaneHead=0;swimlaneBody=0;top=0;left=0;bottom=0;right=0;collapsible=0;dropTarget=0;fillColor=none;points=[[0,0.5],[1,0.5]];portConstraint=eastwest;strokeColor=inherit;fontSize=16;align=center;" parent="WgDP39cw4mnOCj2XshCI-52" vertex="1">
          <mxGeometry y="204" width="242" height="30" as="geometry" />
        </mxCell>
        <mxCell id="WgDP39cw4mnOCj2XshCI-69" value="vote_average" style="shape=partialRectangle;html=1;whiteSpace=wrap;connectable=0;fillColor=none;top=0;left=0;bottom=0;right=0;overflow=hidden;strokeColor=inherit;fontSize=16;align=center;" parent="WgDP39cw4mnOCj2XshCI-68" vertex="1">
          <mxGeometry width="119" height="30" as="geometry">
            <mxRectangle width="119" height="30" as="alternateBounds" />
          </mxGeometry>
        </mxCell>
        <mxCell id="WgDP39cw4mnOCj2XshCI-70" value="Float" style="shape=partialRectangle;html=1;whiteSpace=wrap;connectable=0;fillColor=none;top=0;left=0;bottom=0;right=0;align=center;spacingLeft=6;overflow=hidden;strokeColor=inherit;fontSize=16;" parent="WgDP39cw4mnOCj2XshCI-68" vertex="1">
          <mxGeometry x="119" width="123" height="30" as="geometry">
            <mxRectangle width="123" height="30" as="alternateBounds" />
          </mxGeometry>
        </mxCell>
        <mxCell id="WgDP39cw4mnOCj2XshCI-71" value="" style="shape=tableRow;horizontal=0;startSize=0;swimlaneHead=0;swimlaneBody=0;top=0;left=0;bottom=0;right=0;collapsible=0;dropTarget=0;fillColor=none;points=[[0,0.5],[1,0.5]];portConstraint=eastwest;strokeColor=inherit;fontSize=16;align=center;" parent="WgDP39cw4mnOCj2XshCI-52" vertex="1">
          <mxGeometry y="234" width="242" height="30" as="geometry" />
        </mxCell>
        <mxCell id="WgDP39cw4mnOCj2XshCI-72" value="popularity" style="shape=partialRectangle;html=1;whiteSpace=wrap;connectable=0;fillColor=none;top=0;left=0;bottom=0;right=0;overflow=hidden;strokeColor=inherit;fontSize=16;align=center;" parent="WgDP39cw4mnOCj2XshCI-71" vertex="1">
          <mxGeometry width="119" height="30" as="geometry">
            <mxRectangle width="119" height="30" as="alternateBounds" />
          </mxGeometry>
        </mxCell>
        <mxCell id="WgDP39cw4mnOCj2XshCI-73" value="Float" style="shape=partialRectangle;html=1;whiteSpace=wrap;connectable=0;fillColor=none;top=0;left=0;bottom=0;right=0;align=center;spacingLeft=6;overflow=hidden;strokeColor=inherit;fontSize=16;" parent="WgDP39cw4mnOCj2XshCI-71" vertex="1">
          <mxGeometry x="119" width="123" height="30" as="geometry">
            <mxRectangle width="123" height="30" as="alternateBounds" />
          </mxGeometry>
        </mxCell>
        <mxCell id="WgDP39cw4mnOCj2XshCI-74" value="" style="shape=tableRow;horizontal=0;startSize=0;swimlaneHead=0;swimlaneBody=0;top=0;left=0;bottom=0;right=0;collapsible=0;dropTarget=0;fillColor=none;points=[[0,0.5],[1,0.5]];portConstraint=eastwest;strokeColor=inherit;fontSize=16;align=center;" parent="WgDP39cw4mnOCj2XshCI-52" vertex="1">
          <mxGeometry y="264" width="242" height="30" as="geometry" />
        </mxCell>
        <mxCell id="WgDP39cw4mnOCj2XshCI-75" value="genres" style="shape=partialRectangle;html=1;whiteSpace=wrap;connectable=0;fillColor=none;top=0;left=0;bottom=0;right=0;overflow=hidden;strokeColor=inherit;fontSize=16;align=center;" parent="WgDP39cw4mnOCj2XshCI-74" vertex="1">
          <mxGeometry width="119" height="30" as="geometry">
            <mxRectangle width="119" height="30" as="alternateBounds" />
          </mxGeometry>
        </mxCell>
        <mxCell id="WgDP39cw4mnOCj2XshCI-76" value="Char(100)" style="shape=partialRectangle;html=1;whiteSpace=wrap;connectable=0;fillColor=none;top=0;left=0;bottom=0;right=0;align=center;spacingLeft=6;overflow=hidden;strokeColor=inherit;fontSize=16;" parent="WgDP39cw4mnOCj2XshCI-74" vertex="1">
          <mxGeometry x="119" width="123" height="30" as="geometry">
            <mxRectangle width="123" height="30" as="alternateBounds" />
          </mxGeometry>
        </mxCell>
        <mxCell id="WgDP39cw4mnOCj2XshCI-77" value="" style="shape=tableRow;horizontal=0;startSize=0;swimlaneHead=0;swimlaneBody=0;top=0;left=0;bottom=0;right=0;collapsible=0;dropTarget=0;fillColor=none;points=[[0,0.5],[1,0.5]];portConstraint=eastwest;strokeColor=inherit;fontSize=16;align=center;" parent="WgDP39cw4mnOCj2XshCI-52" vertex="1">
          <mxGeometry y="294" width="242" height="30" as="geometry" />
        </mxCell>
        <mxCell id="WgDP39cw4mnOCj2XshCI-78" value="video_id" style="shape=partialRectangle;html=1;whiteSpace=wrap;connectable=0;fillColor=none;top=0;left=0;bottom=0;right=0;overflow=hidden;strokeColor=inherit;fontSize=16;align=center;" parent="WgDP39cw4mnOCj2XshCI-77" vertex="1">
          <mxGeometry width="119" height="30" as="geometry">
            <mxRectangle width="119" height="30" as="alternateBounds" />
          </mxGeometry>
        </mxCell>
        <mxCell id="WgDP39cw4mnOCj2XshCI-79" value="Char(50)" style="shape=partialRectangle;html=1;whiteSpace=wrap;connectable=0;fillColor=none;top=0;left=0;bottom=0;right=0;align=center;spacingLeft=6;overflow=hidden;strokeColor=inherit;fontSize=16;" parent="WgDP39cw4mnOCj2XshCI-77" vertex="1">
          <mxGeometry x="119" width="123" height="30" as="geometry">
            <mxRectangle width="123" height="30" as="alternateBounds" />
          </mxGeometry>
        </mxCell>
        <mxCell id="WgDP39cw4mnOCj2XshCI-80" value="" style="shape=tableRow;horizontal=0;startSize=0;swimlaneHead=0;swimlaneBody=0;top=0;left=0;bottom=0;right=0;collapsible=0;dropTarget=0;fillColor=none;points=[[0,0.5],[1,0.5]];portConstraint=eastwest;strokeColor=inherit;fontSize=16;align=center;" parent="WgDP39cw4mnOCj2XshCI-52" vertex="1">
          <mxGeometry y="324" width="242" height="30" as="geometry" />
        </mxCell>
        <mxCell id="WgDP39cw4mnOCj2XshCI-81" value="runtime" style="shape=partialRectangle;html=1;whiteSpace=wrap;connectable=0;fillColor=none;top=0;left=0;bottom=0;right=0;overflow=hidden;strokeColor=inherit;fontSize=16;align=center;" parent="WgDP39cw4mnOCj2XshCI-80" vertex="1">
          <mxGeometry width="119" height="30" as="geometry">
            <mxRectangle width="119" height="30" as="alternateBounds" />
          </mxGeometry>
        </mxCell>
        <mxCell id="WgDP39cw4mnOCj2XshCI-82" value="Char(500)" style="shape=partialRectangle;html=1;whiteSpace=wrap;connectable=0;fillColor=none;top=0;left=0;bottom=0;right=0;align=center;spacingLeft=6;overflow=hidden;strokeColor=inherit;fontSize=16;" parent="WgDP39cw4mnOCj2XshCI-80" vertex="1">
          <mxGeometry x="119" width="123" height="30" as="geometry">
            <mxRectangle width="123" height="30" as="alternateBounds" />
          </mxGeometry>
        </mxCell>
        <mxCell id="WgDP39cw4mnOCj2XshCI-83" value="" style="line;strokeWidth=1;html=1;perimeter=backbonePerimeter;points=[];outlineConnect=0;align=center;" parent="1" vertex="1">
          <mxGeometry x="538.5" y="-159" width="243" height="10" as="geometry" />
        </mxCell>
        <mxCell id="WgDP39cw4mnOCj2XshCI-84" value="movies_popular_movies" style="shape=table;startSize=30;container=1;collapsible=0;childLayout=tableLayout;fixedRows=1;rowLines=0;fontStyle=0;strokeColor=default;fontSize=16;rounded=1;align=center;shadow=0;fillColor=#E6D0DE;verticalAlign=middle;direction=east;" parent="1" vertex="1">
          <mxGeometry x="541" y="-500" width="242" height="240" as="geometry" />
        </mxCell>
        <mxCell id="WgDP39cw4mnOCj2XshCI-85" value="" style="shape=tableRow;horizontal=0;startSize=0;swimlaneHead=0;swimlaneBody=0;top=0;left=0;bottom=0;right=0;collapsible=0;dropTarget=0;fillColor=none;points=[[0,0.5],[1,0.5]];portConstraint=eastwest;strokeColor=inherit;fontSize=16;align=center;" parent="WgDP39cw4mnOCj2XshCI-84" vertex="1">
          <mxGeometry y="30" width="242" height="24" as="geometry" />
        </mxCell>
        <mxCell id="WgDP39cw4mnOCj2XshCI-86" value="id" style="shape=partialRectangle;html=1;whiteSpace=wrap;connectable=0;fillColor=none;top=0;left=0;bottom=0;right=0;overflow=hidden;pointerEvents=1;strokeColor=inherit;fontSize=16;align=center;" parent="WgDP39cw4mnOCj2XshCI-85" vertex="1">
          <mxGeometry width="119" height="24" as="geometry">
            <mxRectangle width="119" height="24" as="alternateBounds" />
          </mxGeometry>
        </mxCell>
        <mxCell id="WgDP39cw4mnOCj2XshCI-87" value="integer" style="shape=partialRectangle;html=1;whiteSpace=wrap;connectable=0;fillColor=none;top=0;left=0;bottom=0;right=0;align=center;spacingLeft=6;overflow=hidden;strokeColor=inherit;fontSize=16;" parent="WgDP39cw4mnOCj2XshCI-85" vertex="1">
          <mxGeometry x="119" width="123" height="24" as="geometry">
            <mxRectangle width="123" height="24" as="alternateBounds" />
          </mxGeometry>
        </mxCell>
        <mxCell id="WgDP39cw4mnOCj2XshCI-88" value="" style="shape=tableRow;horizontal=0;startSize=0;swimlaneHead=0;swimlaneBody=0;top=0;left=0;bottom=0;right=0;collapsible=0;dropTarget=0;fillColor=none;points=[[0,0.5],[1,0.5]];portConstraint=eastwest;strokeColor=inherit;fontSize=16;align=center;" parent="WgDP39cw4mnOCj2XshCI-84" vertex="1">
          <mxGeometry y="54" width="242" height="30" as="geometry" />
        </mxCell>
        <mxCell id="WgDP39cw4mnOCj2XshCI-89" value="title" style="shape=partialRectangle;html=1;whiteSpace=wrap;connectable=0;fillColor=none;top=0;left=0;bottom=0;right=0;overflow=hidden;strokeColor=inherit;fontSize=16;align=center;" parent="WgDP39cw4mnOCj2XshCI-88" vertex="1">
          <mxGeometry width="119" height="30" as="geometry">
            <mxRectangle width="119" height="30" as="alternateBounds" />
          </mxGeometry>
        </mxCell>
        <mxCell id="WgDP39cw4mnOCj2XshCI-90" value="Char(100)" style="shape=partialRectangle;html=1;whiteSpace=wrap;connectable=0;fillColor=none;top=0;left=0;bottom=0;right=0;align=center;spacingLeft=6;overflow=hidden;strokeColor=inherit;fontSize=16;" parent="WgDP39cw4mnOCj2XshCI-88" vertex="1">
          <mxGeometry x="119" width="123" height="30" as="geometry">
            <mxRectangle width="123" height="30" as="alternateBounds" />
          </mxGeometry>
        </mxCell>
        <mxCell id="WgDP39cw4mnOCj2XshCI-91" value="" style="shape=tableRow;horizontal=0;startSize=0;swimlaneHead=0;swimlaneBody=0;top=0;left=0;bottom=0;right=0;collapsible=0;dropTarget=0;fillColor=none;points=[[0,0.5],[1,0.5]];portConstraint=eastwest;strokeColor=inherit;fontSize=16;align=center;" parent="WgDP39cw4mnOCj2XshCI-84" vertex="1">
          <mxGeometry y="84" width="242" height="30" as="geometry" />
        </mxCell>
        <mxCell id="WgDP39cw4mnOCj2XshCI-92" value="release_data" style="shape=partialRectangle;html=1;whiteSpace=wrap;connectable=0;fillColor=none;top=0;left=0;bottom=0;right=0;overflow=hidden;strokeColor=inherit;fontSize=16;align=center;" parent="WgDP39cw4mnOCj2XshCI-91" vertex="1">
          <mxGeometry width="119" height="30" as="geometry">
            <mxRectangle width="119" height="30" as="alternateBounds" />
          </mxGeometry>
        </mxCell>
        <mxCell id="WgDP39cw4mnOCj2XshCI-93" value="Date" style="shape=partialRectangle;html=1;whiteSpace=wrap;connectable=0;fillColor=none;top=0;left=0;bottom=0;right=0;align=center;spacingLeft=6;overflow=hidden;strokeColor=inherit;fontSize=16;" parent="WgDP39cw4mnOCj2XshCI-91" vertex="1">
          <mxGeometry x="119" width="123" height="30" as="geometry">
            <mxRectangle width="123" height="30" as="alternateBounds" />
          </mxGeometry>
        </mxCell>
        <mxCell id="WgDP39cw4mnOCj2XshCI-94" value="" style="shape=tableRow;horizontal=0;startSize=0;swimlaneHead=0;swimlaneBody=0;top=0;left=0;bottom=0;right=0;collapsible=0;dropTarget=0;fillColor=none;points=[[0,0.5],[1,0.5]];portConstraint=eastwest;strokeColor=inherit;fontSize=16;align=center;" parent="WgDP39cw4mnOCj2XshCI-84" vertex="1">
          <mxGeometry y="114" width="242" height="30" as="geometry" />
        </mxCell>
        <mxCell id="WgDP39cw4mnOCj2XshCI-95" value="overview" style="shape=partialRectangle;html=1;whiteSpace=wrap;connectable=0;fillColor=none;top=0;left=0;bottom=0;right=0;overflow=hidden;strokeColor=inherit;fontSize=16;align=center;" parent="WgDP39cw4mnOCj2XshCI-94" vertex="1">
          <mxGeometry width="119" height="30" as="geometry">
            <mxRectangle width="119" height="30" as="alternateBounds" />
          </mxGeometry>
        </mxCell>
        <mxCell id="WgDP39cw4mnOCj2XshCI-96" value="Text" style="shape=partialRectangle;html=1;whiteSpace=wrap;connectable=0;fillColor=none;top=0;left=0;bottom=0;right=0;align=center;spacingLeft=6;overflow=hidden;strokeColor=inherit;fontSize=16;" parent="WgDP39cw4mnOCj2XshCI-94" vertex="1">
          <mxGeometry x="119" width="123" height="30" as="geometry">
            <mxRectangle width="123" height="30" as="alternateBounds" />
          </mxGeometry>
        </mxCell>
        <mxCell id="WgDP39cw4mnOCj2XshCI-97" value="" style="shape=tableRow;horizontal=0;startSize=0;swimlaneHead=0;swimlaneBody=0;top=0;left=0;bottom=0;right=0;collapsible=0;dropTarget=0;fillColor=none;points=[[0,0.5],[1,0.5]];portConstraint=eastwest;strokeColor=inherit;fontSize=16;align=center;" parent="WgDP39cw4mnOCj2XshCI-84" vertex="1">
          <mxGeometry y="144" width="242" height="36" as="geometry" />
        </mxCell>
        <mxCell id="WgDP39cw4mnOCj2XshCI-98" value="poster_path" style="shape=partialRectangle;html=1;whiteSpace=wrap;connectable=0;fillColor=none;top=0;left=0;bottom=0;right=0;overflow=hidden;strokeColor=inherit;fontSize=16;align=center;" parent="WgDP39cw4mnOCj2XshCI-97" vertex="1">
          <mxGeometry width="119" height="36" as="geometry">
            <mxRectangle width="119" height="36" as="alternateBounds" />
          </mxGeometry>
        </mxCell>
        <mxCell id="WgDP39cw4mnOCj2XshCI-99" value="Text" style="shape=partialRectangle;whiteSpace=wrap;connectable=0;fillColor=none;top=0;left=0;bottom=0;right=0;align=center;spacingLeft=6;overflow=hidden;strokeColor=inherit;fontSize=16;" parent="WgDP39cw4mnOCj2XshCI-97" vertex="1">
          <mxGeometry x="119" width="123" height="36" as="geometry">
            <mxRectangle width="123" height="36" as="alternateBounds" />
          </mxGeometry>
        </mxCell>
        <mxCell id="WgDP39cw4mnOCj2XshCI-100" value="" style="shape=tableRow;horizontal=0;startSize=0;swimlaneHead=0;swimlaneBody=0;top=0;left=0;bottom=0;right=0;collapsible=0;dropTarget=0;fillColor=none;points=[[0,0.5],[1,0.5]];portConstraint=eastwest;strokeColor=inherit;fontSize=16;align=center;" parent="WgDP39cw4mnOCj2XshCI-84" vertex="1">
          <mxGeometry y="180" width="242" height="30" as="geometry" />
        </mxCell>
        <mxCell id="WgDP39cw4mnOCj2XshCI-101" value="vote_average" style="shape=partialRectangle;html=1;whiteSpace=wrap;connectable=0;fillColor=none;top=0;left=0;bottom=0;right=0;overflow=hidden;strokeColor=inherit;fontSize=16;align=center;" parent="WgDP39cw4mnOCj2XshCI-100" vertex="1">
          <mxGeometry width="119" height="30" as="geometry">
            <mxRectangle width="119" height="30" as="alternateBounds" />
          </mxGeometry>
        </mxCell>
        <mxCell id="WgDP39cw4mnOCj2XshCI-102" value="Float" style="shape=partialRectangle;html=1;whiteSpace=wrap;connectable=0;fillColor=none;top=0;left=0;bottom=0;right=0;align=center;spacingLeft=6;overflow=hidden;strokeColor=inherit;fontSize=16;" parent="WgDP39cw4mnOCj2XshCI-100" vertex="1">
          <mxGeometry x="119" width="123" height="30" as="geometry">
            <mxRectangle width="123" height="30" as="alternateBounds" />
          </mxGeometry>
        </mxCell>
        <mxCell id="WgDP39cw4mnOCj2XshCI-103" value="" style="shape=tableRow;horizontal=0;startSize=0;swimlaneHead=0;swimlaneBody=0;top=0;left=0;bottom=0;right=0;collapsible=0;dropTarget=0;fillColor=none;points=[[0,0.5],[1,0.5]];portConstraint=eastwest;strokeColor=inherit;fontSize=16;align=center;" parent="WgDP39cw4mnOCj2XshCI-84" vertex="1">
          <mxGeometry y="210" width="242" height="30" as="geometry" />
        </mxCell>
        <mxCell id="WgDP39cw4mnOCj2XshCI-104" value="popularity" style="shape=partialRectangle;html=1;whiteSpace=wrap;connectable=0;fillColor=none;top=0;left=0;bottom=0;right=0;overflow=hidden;strokeColor=inherit;fontSize=16;align=center;" parent="WgDP39cw4mnOCj2XshCI-103" vertex="1">
          <mxGeometry width="119" height="30" as="geometry">
            <mxRectangle width="119" height="30" as="alternateBounds" />
          </mxGeometry>
        </mxCell>
        <mxCell id="WgDP39cw4mnOCj2XshCI-105" value="Float" style="shape=partialRectangle;html=1;whiteSpace=wrap;connectable=0;fillColor=none;top=0;left=0;bottom=0;right=0;align=center;spacingLeft=6;overflow=hidden;strokeColor=inherit;fontSize=16;" parent="WgDP39cw4mnOCj2XshCI-103" vertex="1">
          <mxGeometry x="119" width="123" height="30" as="geometry">
            <mxRectangle width="123" height="30" as="alternateBounds" />
          </mxGeometry>
        </mxCell>
        <mxCell id="WgDP39cw4mnOCj2XshCI-112" value="" style="line;strokeWidth=1;html=1;perimeter=backbonePerimeter;points=[];outlineConnect=0;align=center;direction=east;" parent="1" vertex="1">
          <mxGeometry x="540" y="-451" width="243" height="10" as="geometry" />
        </mxCell>
        <mxCell id="WgDP39cw4mnOCj2XshCI-113" value="movies_top_rated_movies" style="shape=table;startSize=30;container=1;collapsible=0;childLayout=tableLayout;fixedRows=1;rowLines=0;fontStyle=0;strokeColor=default;fontSize=16;rounded=1;align=center;shadow=0;fillColor=#E6D0DE;" parent="1" vertex="1">
          <mxGeometry x="540" y="200" width="240" height="234" as="geometry" />
        </mxCell>
        <mxCell id="WgDP39cw4mnOCj2XshCI-114" value="" style="shape=tableRow;horizontal=0;startSize=0;swimlaneHead=0;swimlaneBody=0;top=0;left=0;bottom=0;right=0;collapsible=0;dropTarget=0;fillColor=none;points=[[0,0.5],[1,0.5]];portConstraint=eastwest;strokeColor=inherit;fontSize=16;align=center;" parent="WgDP39cw4mnOCj2XshCI-113" vertex="1">
          <mxGeometry y="30" width="240" height="24" as="geometry" />
        </mxCell>
        <mxCell id="WgDP39cw4mnOCj2XshCI-115" value="id" style="shape=partialRectangle;html=1;whiteSpace=wrap;connectable=0;fillColor=none;top=0;left=0;bottom=0;right=0;overflow=hidden;pointerEvents=1;strokeColor=inherit;fontSize=16;align=center;" parent="WgDP39cw4mnOCj2XshCI-114" vertex="1">
          <mxGeometry width="119" height="24" as="geometry">
            <mxRectangle width="119" height="24" as="alternateBounds" />
          </mxGeometry>
        </mxCell>
        <mxCell id="WgDP39cw4mnOCj2XshCI-116" value="integer" style="shape=partialRectangle;html=1;whiteSpace=wrap;connectable=0;fillColor=none;top=0;left=0;bottom=0;right=0;align=center;spacingLeft=6;overflow=hidden;strokeColor=inherit;fontSize=16;" parent="WgDP39cw4mnOCj2XshCI-114" vertex="1">
          <mxGeometry x="119" width="121" height="24" as="geometry">
            <mxRectangle width="121" height="24" as="alternateBounds" />
          </mxGeometry>
        </mxCell>
        <mxCell id="WgDP39cw4mnOCj2XshCI-117" value="" style="shape=tableRow;horizontal=0;startSize=0;swimlaneHead=0;swimlaneBody=0;top=0;left=0;bottom=0;right=0;collapsible=0;dropTarget=0;fillColor=none;points=[[0,0.5],[1,0.5]];portConstraint=eastwest;strokeColor=inherit;fontSize=16;align=center;" parent="WgDP39cw4mnOCj2XshCI-113" vertex="1">
          <mxGeometry y="54" width="240" height="30" as="geometry" />
        </mxCell>
        <mxCell id="WgDP39cw4mnOCj2XshCI-118" value="title" style="shape=partialRectangle;html=1;whiteSpace=wrap;connectable=0;fillColor=none;top=0;left=0;bottom=0;right=0;overflow=hidden;strokeColor=inherit;fontSize=16;align=center;" parent="WgDP39cw4mnOCj2XshCI-117" vertex="1">
          <mxGeometry width="119" height="30" as="geometry">
            <mxRectangle width="119" height="30" as="alternateBounds" />
          </mxGeometry>
        </mxCell>
        <mxCell id="WgDP39cw4mnOCj2XshCI-119" value="Char(100)" style="shape=partialRectangle;html=1;whiteSpace=wrap;connectable=0;fillColor=none;top=0;left=0;bottom=0;right=0;align=center;spacingLeft=6;overflow=hidden;strokeColor=inherit;fontSize=16;" parent="WgDP39cw4mnOCj2XshCI-117" vertex="1">
          <mxGeometry x="119" width="121" height="30" as="geometry">
            <mxRectangle width="121" height="30" as="alternateBounds" />
          </mxGeometry>
        </mxCell>
        <mxCell id="WgDP39cw4mnOCj2XshCI-120" value="" style="shape=tableRow;horizontal=0;startSize=0;swimlaneHead=0;swimlaneBody=0;top=0;left=0;bottom=0;right=0;collapsible=0;dropTarget=0;fillColor=none;points=[[0,0.5],[1,0.5]];portConstraint=eastwest;strokeColor=inherit;fontSize=16;align=center;" parent="WgDP39cw4mnOCj2XshCI-113" vertex="1">
          <mxGeometry y="84" width="240" height="30" as="geometry" />
        </mxCell>
        <mxCell id="WgDP39cw4mnOCj2XshCI-121" value="release_data" style="shape=partialRectangle;html=1;whiteSpace=wrap;connectable=0;fillColor=none;top=0;left=0;bottom=0;right=0;overflow=hidden;strokeColor=inherit;fontSize=16;align=center;" parent="WgDP39cw4mnOCj2XshCI-120" vertex="1">
          <mxGeometry width="119" height="30" as="geometry">
            <mxRectangle width="119" height="30" as="alternateBounds" />
          </mxGeometry>
        </mxCell>
        <mxCell id="WgDP39cw4mnOCj2XshCI-122" value="Date" style="shape=partialRectangle;html=1;whiteSpace=wrap;connectable=0;fillColor=none;top=0;left=0;bottom=0;right=0;align=center;spacingLeft=6;overflow=hidden;strokeColor=inherit;fontSize=16;" parent="WgDP39cw4mnOCj2XshCI-120" vertex="1">
          <mxGeometry x="119" width="121" height="30" as="geometry">
            <mxRectangle width="121" height="30" as="alternateBounds" />
          </mxGeometry>
        </mxCell>
        <mxCell id="WgDP39cw4mnOCj2XshCI-123" value="" style="shape=tableRow;horizontal=0;startSize=0;swimlaneHead=0;swimlaneBody=0;top=0;left=0;bottom=0;right=0;collapsible=0;dropTarget=0;fillColor=none;points=[[0,0.5],[1,0.5]];portConstraint=eastwest;strokeColor=inherit;fontSize=16;align=center;" parent="WgDP39cw4mnOCj2XshCI-113" vertex="1">
          <mxGeometry y="114" width="240" height="30" as="geometry" />
        </mxCell>
        <mxCell id="WgDP39cw4mnOCj2XshCI-124" value="overview" style="shape=partialRectangle;html=1;whiteSpace=wrap;connectable=0;fillColor=none;top=0;left=0;bottom=0;right=0;overflow=hidden;strokeColor=inherit;fontSize=16;align=center;" parent="WgDP39cw4mnOCj2XshCI-123" vertex="1">
          <mxGeometry width="119" height="30" as="geometry">
            <mxRectangle width="119" height="30" as="alternateBounds" />
          </mxGeometry>
        </mxCell>
        <mxCell id="WgDP39cw4mnOCj2XshCI-125" value="Text" style="shape=partialRectangle;html=1;whiteSpace=wrap;connectable=0;fillColor=none;top=0;left=0;bottom=0;right=0;align=center;spacingLeft=6;overflow=hidden;strokeColor=inherit;fontSize=16;" parent="WgDP39cw4mnOCj2XshCI-123" vertex="1">
          <mxGeometry x="119" width="121" height="30" as="geometry">
            <mxRectangle width="121" height="30" as="alternateBounds" />
          </mxGeometry>
        </mxCell>
        <mxCell id="WgDP39cw4mnOCj2XshCI-126" value="" style="shape=tableRow;horizontal=0;startSize=0;swimlaneHead=0;swimlaneBody=0;top=0;left=0;bottom=0;right=0;collapsible=0;dropTarget=0;fillColor=none;points=[[0,0.5],[1,0.5]];portConstraint=eastwest;strokeColor=inherit;fontSize=16;align=center;" parent="WgDP39cw4mnOCj2XshCI-113" vertex="1">
          <mxGeometry y="144" width="240" height="30" as="geometry" />
        </mxCell>
        <mxCell id="WgDP39cw4mnOCj2XshCI-127" value="poster_path" style="shape=partialRectangle;html=1;whiteSpace=wrap;connectable=0;fillColor=none;top=0;left=0;bottom=0;right=0;overflow=hidden;strokeColor=inherit;fontSize=16;align=center;" parent="WgDP39cw4mnOCj2XshCI-126" vertex="1">
          <mxGeometry width="119" height="30" as="geometry">
            <mxRectangle width="119" height="30" as="alternateBounds" />
          </mxGeometry>
        </mxCell>
        <mxCell id="WgDP39cw4mnOCj2XshCI-128" value="Text" style="shape=partialRectangle;html=1;whiteSpace=wrap;connectable=0;fillColor=none;top=0;left=0;bottom=0;right=0;align=center;spacingLeft=6;overflow=hidden;strokeColor=inherit;fontSize=16;" parent="WgDP39cw4mnOCj2XshCI-126" vertex="1">
          <mxGeometry x="119" width="121" height="30" as="geometry">
            <mxRectangle width="121" height="30" as="alternateBounds" />
          </mxGeometry>
        </mxCell>
        <mxCell id="WgDP39cw4mnOCj2XshCI-129" value="" style="shape=tableRow;horizontal=0;startSize=0;swimlaneHead=0;swimlaneBody=0;top=0;left=0;bottom=0;right=0;collapsible=0;dropTarget=0;fillColor=none;points=[[0,0.5],[1,0.5]];portConstraint=eastwest;strokeColor=inherit;fontSize=16;align=center;" parent="WgDP39cw4mnOCj2XshCI-113" vertex="1">
          <mxGeometry y="174" width="240" height="30" as="geometry" />
        </mxCell>
        <mxCell id="WgDP39cw4mnOCj2XshCI-130" value="vote_average" style="shape=partialRectangle;html=1;whiteSpace=wrap;connectable=0;fillColor=none;top=0;left=0;bottom=0;right=0;overflow=hidden;strokeColor=inherit;fontSize=16;align=center;" parent="WgDP39cw4mnOCj2XshCI-129" vertex="1">
          <mxGeometry width="119" height="30" as="geometry">
            <mxRectangle width="119" height="30" as="alternateBounds" />
          </mxGeometry>
        </mxCell>
        <mxCell id="WgDP39cw4mnOCj2XshCI-131" value="Float" style="shape=partialRectangle;html=1;whiteSpace=wrap;connectable=0;fillColor=none;top=0;left=0;bottom=0;right=0;align=center;spacingLeft=6;overflow=hidden;strokeColor=inherit;fontSize=16;" parent="WgDP39cw4mnOCj2XshCI-129" vertex="1">
          <mxGeometry x="119" width="121" height="30" as="geometry">
            <mxRectangle width="121" height="30" as="alternateBounds" />
          </mxGeometry>
        </mxCell>
        <mxCell id="WgDP39cw4mnOCj2XshCI-132" value="" style="shape=tableRow;horizontal=0;startSize=0;swimlaneHead=0;swimlaneBody=0;top=0;left=0;bottom=0;right=0;collapsible=0;dropTarget=0;fillColor=none;points=[[0,0.5],[1,0.5]];portConstraint=eastwest;strokeColor=inherit;fontSize=16;align=center;" parent="WgDP39cw4mnOCj2XshCI-113" vertex="1">
          <mxGeometry y="204" width="240" height="30" as="geometry" />
        </mxCell>
        <mxCell id="WgDP39cw4mnOCj2XshCI-133" value="popularity" style="shape=partialRectangle;html=1;whiteSpace=wrap;connectable=0;fillColor=none;top=0;left=0;bottom=0;right=0;overflow=hidden;strokeColor=inherit;fontSize=16;align=center;" parent="WgDP39cw4mnOCj2XshCI-132" vertex="1">
          <mxGeometry width="119" height="30" as="geometry">
            <mxRectangle width="119" height="30" as="alternateBounds" />
          </mxGeometry>
        </mxCell>
        <mxCell id="WgDP39cw4mnOCj2XshCI-134" value="Float" style="shape=partialRectangle;html=1;whiteSpace=wrap;connectable=0;fillColor=none;top=0;left=0;bottom=0;right=0;align=center;spacingLeft=6;overflow=hidden;strokeColor=inherit;fontSize=16;" parent="WgDP39cw4mnOCj2XshCI-132" vertex="1">
          <mxGeometry x="119" width="121" height="30" as="geometry">
            <mxRectangle width="121" height="30" as="alternateBounds" />
          </mxGeometry>
        </mxCell>
        <mxCell id="WgDP39cw4mnOCj2XshCI-141" value="" style="line;strokeWidth=1;html=1;perimeter=backbonePerimeter;points=[];outlineConnect=0;align=center;" parent="1" vertex="1">
          <mxGeometry x="540" y="250" width="240" height="10" as="geometry" />
        </mxCell>
        <mxCell id="WgDP39cw4mnOCj2XshCI-142" value="movies_movie_like" style="shape=table;startSize=30;container=1;collapsible=0;childLayout=tableLayout;fixedRows=1;rowLines=0;fontStyle=0;strokeColor=default;fontSize=16;rounded=1;align=center;shadow=0;fillColor=#E6D0DE;" parent="1" vertex="1">
          <mxGeometry x="150" y="60" width="242" height="114" as="geometry" />
        </mxCell>
        <mxCell id="WgDP39cw4mnOCj2XshCI-143" value="" style="shape=tableRow;horizontal=0;startSize=0;swimlaneHead=0;swimlaneBody=0;top=0;left=0;bottom=0;right=0;collapsible=0;dropTarget=0;fillColor=none;points=[[0,0.5],[1,0.5]];portConstraint=eastwest;strokeColor=inherit;fontSize=16;align=center;" parent="WgDP39cw4mnOCj2XshCI-142" vertex="1">
          <mxGeometry y="30" width="242" height="24" as="geometry" />
        </mxCell>
        <mxCell id="WgDP39cw4mnOCj2XshCI-144" value="id" style="shape=partialRectangle;html=1;whiteSpace=wrap;connectable=0;fillColor=none;top=0;left=0;bottom=0;right=0;overflow=hidden;pointerEvents=1;strokeColor=inherit;fontSize=16;align=center;" parent="WgDP39cw4mnOCj2XshCI-143" vertex="1">
          <mxGeometry width="120" height="24" as="geometry">
            <mxRectangle width="120" height="24" as="alternateBounds" />
          </mxGeometry>
        </mxCell>
        <mxCell id="WgDP39cw4mnOCj2XshCI-145" value="integer" style="shape=partialRectangle;html=1;whiteSpace=wrap;connectable=0;fillColor=none;top=0;left=0;bottom=0;right=0;align=center;spacingLeft=6;overflow=hidden;strokeColor=inherit;fontSize=16;" parent="WgDP39cw4mnOCj2XshCI-143" vertex="1">
          <mxGeometry x="120" width="122" height="24" as="geometry">
            <mxRectangle width="122" height="24" as="alternateBounds" />
          </mxGeometry>
        </mxCell>
        <mxCell id="WgDP39cw4mnOCj2XshCI-146" value="" style="shape=tableRow;horizontal=0;startSize=0;swimlaneHead=0;swimlaneBody=0;top=0;left=0;bottom=0;right=0;collapsible=0;dropTarget=0;fillColor=none;points=[[0,0.5],[1,0.5]];portConstraint=eastwest;strokeColor=inherit;fontSize=16;align=center;" parent="WgDP39cw4mnOCj2XshCI-142" vertex="1">
          <mxGeometry y="54" width="242" height="30" as="geometry" />
        </mxCell>
        <mxCell id="WgDP39cw4mnOCj2XshCI-147" value="movie_id" style="shape=partialRectangle;html=1;whiteSpace=wrap;connectable=0;fillColor=none;top=0;left=0;bottom=0;right=0;overflow=hidden;strokeColor=inherit;fontSize=16;align=center;" parent="WgDP39cw4mnOCj2XshCI-146" vertex="1">
          <mxGeometry width="120" height="30" as="geometry">
            <mxRectangle width="120" height="30" as="alternateBounds" />
          </mxGeometry>
        </mxCell>
        <mxCell id="WgDP39cw4mnOCj2XshCI-148" value="integer" style="shape=partialRectangle;html=1;whiteSpace=wrap;connectable=0;fillColor=none;top=0;left=0;bottom=0;right=0;align=center;spacingLeft=6;overflow=hidden;strokeColor=inherit;fontSize=16;" parent="WgDP39cw4mnOCj2XshCI-146" vertex="1">
          <mxGeometry x="120" width="122" height="30" as="geometry">
            <mxRectangle width="122" height="30" as="alternateBounds" />
          </mxGeometry>
        </mxCell>
        <mxCell id="WgDP39cw4mnOCj2XshCI-149" value="" style="shape=tableRow;horizontal=0;startSize=0;swimlaneHead=0;swimlaneBody=0;top=0;left=0;bottom=0;right=0;collapsible=0;dropTarget=0;fillColor=none;points=[[0,0.5],[1,0.5]];portConstraint=eastwest;strokeColor=inherit;fontSize=16;align=center;" parent="WgDP39cw4mnOCj2XshCI-142" vertex="1">
          <mxGeometry y="84" width="242" height="30" as="geometry" />
        </mxCell>
        <mxCell id="WgDP39cw4mnOCj2XshCI-150" value="user_id" style="shape=partialRectangle;html=1;whiteSpace=wrap;connectable=0;fillColor=none;top=0;left=0;bottom=0;right=0;overflow=hidden;strokeColor=inherit;fontSize=16;align=center;" parent="WgDP39cw4mnOCj2XshCI-149" vertex="1">
          <mxGeometry width="120" height="30" as="geometry">
            <mxRectangle width="120" height="30" as="alternateBounds" />
          </mxGeometry>
        </mxCell>
        <mxCell id="WgDP39cw4mnOCj2XshCI-151" value="integer" style="shape=partialRectangle;html=1;whiteSpace=wrap;connectable=0;fillColor=none;top=0;left=0;bottom=0;right=0;align=center;spacingLeft=6;overflow=hidden;strokeColor=inherit;fontSize=16;" parent="WgDP39cw4mnOCj2XshCI-149" vertex="1">
          <mxGeometry x="120" width="122" height="30" as="geometry">
            <mxRectangle width="122" height="30" as="alternateBounds" />
          </mxGeometry>
        </mxCell>
        <mxCell id="WgDP39cw4mnOCj2XshCI-152" value="" style="line;strokeWidth=1;html=1;perimeter=backbonePerimeter;points=[];outlineConnect=0;align=center;shadow=0;fillColor=#E6D0DE;" parent="1" vertex="1">
          <mxGeometry x="150" y="110" width="243" height="10" as="geometry" />
        </mxCell>
        <mxCell id="WgDP39cw4mnOCj2XshCI-153" value="movies_movie_review" style="shape=table;startSize=30;container=1;collapsible=0;childLayout=tableLayout;fixedRows=1;rowLines=0;fontStyle=0;strokeColor=default;fontSize=16;rounded=1;align=center;fillColor=#E6D0DE;" parent="1" vertex="1">
          <mxGeometry x="160" y="-310" width="242" height="174" as="geometry" />
        </mxCell>
        <mxCell id="WgDP39cw4mnOCj2XshCI-154" value="" style="shape=tableRow;horizontal=0;startSize=0;swimlaneHead=0;swimlaneBody=0;top=0;left=0;bottom=0;right=0;collapsible=0;dropTarget=0;fillColor=none;points=[[0,0.5],[1,0.5]];portConstraint=eastwest;strokeColor=inherit;fontSize=16;align=center;" parent="WgDP39cw4mnOCj2XshCI-153" vertex="1">
          <mxGeometry y="30" width="242" height="24" as="geometry" />
        </mxCell>
        <mxCell id="WgDP39cw4mnOCj2XshCI-155" value="id" style="shape=partialRectangle;html=1;whiteSpace=wrap;connectable=0;fillColor=none;top=0;left=0;bottom=0;right=0;overflow=hidden;pointerEvents=1;strokeColor=inherit;fontSize=16;align=center;" parent="WgDP39cw4mnOCj2XshCI-154" vertex="1">
          <mxGeometry width="119" height="24" as="geometry">
            <mxRectangle width="119" height="24" as="alternateBounds" />
          </mxGeometry>
        </mxCell>
        <mxCell id="WgDP39cw4mnOCj2XshCI-156" value="integer" style="shape=partialRectangle;html=1;whiteSpace=wrap;connectable=0;fillColor=none;top=0;left=0;bottom=0;right=0;align=center;spacingLeft=6;overflow=hidden;strokeColor=inherit;fontSize=16;" parent="WgDP39cw4mnOCj2XshCI-154" vertex="1">
          <mxGeometry x="119" width="123" height="24" as="geometry">
            <mxRectangle width="123" height="24" as="alternateBounds" />
          </mxGeometry>
        </mxCell>
        <mxCell id="WgDP39cw4mnOCj2XshCI-157" value="" style="shape=tableRow;horizontal=0;startSize=0;swimlaneHead=0;swimlaneBody=0;top=0;left=0;bottom=0;right=0;collapsible=0;dropTarget=0;fillColor=none;points=[[0,0.5],[1,0.5]];portConstraint=eastwest;strokeColor=inherit;fontSize=16;align=center;" parent="WgDP39cw4mnOCj2XshCI-153" vertex="1">
          <mxGeometry y="54" width="242" height="30" as="geometry" />
        </mxCell>
        <mxCell id="WgDP39cw4mnOCj2XshCI-158" value="content" style="shape=partialRectangle;html=1;whiteSpace=wrap;connectable=0;fillColor=none;top=0;left=0;bottom=0;right=0;overflow=hidden;strokeColor=inherit;fontSize=16;align=center;" parent="WgDP39cw4mnOCj2XshCI-157" vertex="1">
          <mxGeometry width="119" height="30" as="geometry">
            <mxRectangle width="119" height="30" as="alternateBounds" />
          </mxGeometry>
        </mxCell>
        <mxCell id="WgDP39cw4mnOCj2XshCI-159" value="varchar(100)" style="shape=partialRectangle;html=1;whiteSpace=wrap;connectable=0;fillColor=none;top=0;left=0;bottom=0;right=0;align=center;spacingLeft=6;overflow=hidden;strokeColor=inherit;fontSize=16;" parent="WgDP39cw4mnOCj2XshCI-157" vertex="1">
          <mxGeometry x="119" width="123" height="30" as="geometry">
            <mxRectangle width="123" height="30" as="alternateBounds" />
          </mxGeometry>
        </mxCell>
        <mxCell id="WgDP39cw4mnOCj2XshCI-160" value="" style="shape=tableRow;horizontal=0;startSize=0;swimlaneHead=0;swimlaneBody=0;top=0;left=0;bottom=0;right=0;collapsible=0;dropTarget=0;fillColor=none;points=[[0,0.5],[1,0.5]];portConstraint=eastwest;strokeColor=inherit;fontSize=16;align=center;" parent="WgDP39cw4mnOCj2XshCI-153" vertex="1">
          <mxGeometry y="84" width="242" height="30" as="geometry" />
        </mxCell>
        <mxCell id="WgDP39cw4mnOCj2XshCI-161" value="created_at" style="shape=partialRectangle;html=1;whiteSpace=wrap;connectable=0;fillColor=none;top=0;left=0;bottom=0;right=0;overflow=hidden;strokeColor=inherit;fontSize=16;align=center;" parent="WgDP39cw4mnOCj2XshCI-160" vertex="1">
          <mxGeometry width="119" height="30" as="geometry">
            <mxRectangle width="119" height="30" as="alternateBounds" />
          </mxGeometry>
        </mxCell>
        <mxCell id="WgDP39cw4mnOCj2XshCI-162" value="datetime" style="shape=partialRectangle;html=1;whiteSpace=wrap;connectable=0;fillColor=none;top=0;left=0;bottom=0;right=0;align=center;spacingLeft=6;overflow=hidden;strokeColor=inherit;fontSize=16;" parent="WgDP39cw4mnOCj2XshCI-160" vertex="1">
          <mxGeometry x="119" width="123" height="30" as="geometry">
            <mxRectangle width="123" height="30" as="alternateBounds" />
          </mxGeometry>
        </mxCell>
        <mxCell id="WgDP39cw4mnOCj2XshCI-163" value="" style="shape=tableRow;horizontal=0;startSize=0;swimlaneHead=0;swimlaneBody=0;top=0;left=0;bottom=0;right=0;collapsible=0;dropTarget=0;fillColor=none;points=[[0,0.5],[1,0.5]];portConstraint=eastwest;strokeColor=inherit;fontSize=16;align=center;" parent="WgDP39cw4mnOCj2XshCI-153" vertex="1">
          <mxGeometry y="114" width="242" height="30" as="geometry" />
        </mxCell>
        <mxCell id="WgDP39cw4mnOCj2XshCI-164" value="user_id" style="shape=partialRectangle;html=1;whiteSpace=wrap;connectable=0;fillColor=none;top=0;left=0;bottom=0;right=0;overflow=hidden;strokeColor=inherit;fontSize=16;align=center;" parent="WgDP39cw4mnOCj2XshCI-163" vertex="1">
          <mxGeometry width="119" height="30" as="geometry">
            <mxRectangle width="119" height="30" as="alternateBounds" />
          </mxGeometry>
        </mxCell>
        <mxCell id="WgDP39cw4mnOCj2XshCI-165" value="integer" style="shape=partialRectangle;html=1;whiteSpace=wrap;connectable=0;fillColor=none;top=0;left=0;bottom=0;right=0;align=center;spacingLeft=6;overflow=hidden;strokeColor=inherit;fontSize=16;" parent="WgDP39cw4mnOCj2XshCI-163" vertex="1">
          <mxGeometry x="119" width="123" height="30" as="geometry">
            <mxRectangle width="123" height="30" as="alternateBounds" />
          </mxGeometry>
        </mxCell>
        <mxCell id="WgDP39cw4mnOCj2XshCI-166" value="" style="shape=tableRow;horizontal=0;startSize=0;swimlaneHead=0;swimlaneBody=0;top=0;left=0;bottom=0;right=0;collapsible=0;dropTarget=0;fillColor=none;points=[[0,0.5],[1,0.5]];portConstraint=eastwest;strokeColor=inherit;fontSize=16;align=center;" parent="WgDP39cw4mnOCj2XshCI-153" vertex="1">
          <mxGeometry y="144" width="242" height="30" as="geometry" />
        </mxCell>
        <mxCell id="WgDP39cw4mnOCj2XshCI-167" value="movie_id" style="shape=partialRectangle;html=1;whiteSpace=wrap;connectable=0;fillColor=none;top=0;left=0;bottom=0;right=0;overflow=hidden;strokeColor=inherit;fontSize=16;align=center;" parent="WgDP39cw4mnOCj2XshCI-166" vertex="1">
          <mxGeometry width="119" height="30" as="geometry">
            <mxRectangle width="119" height="30" as="alternateBounds" />
          </mxGeometry>
        </mxCell>
        <mxCell id="WgDP39cw4mnOCj2XshCI-168" value="integer" style="shape=partialRectangle;html=1;whiteSpace=wrap;connectable=0;fillColor=none;top=0;left=0;bottom=0;right=0;align=center;spacingLeft=6;overflow=hidden;strokeColor=inherit;fontSize=16;" parent="WgDP39cw4mnOCj2XshCI-166" vertex="1">
          <mxGeometry x="119" width="123" height="30" as="geometry">
            <mxRectangle width="123" height="30" as="alternateBounds" />
          </mxGeometry>
        </mxCell>
        <mxCell id="WgDP39cw4mnOCj2XshCI-169" value="" style="line;strokeWidth=1;html=1;perimeter=backbonePerimeter;points=[];outlineConnect=0;align=center;" parent="1" vertex="1">
          <mxGeometry x="160" y="-260" width="243" height="10" as="geometry" />
        </mxCell>
        <mxCell id="WgDP39cw4mnOCj2XshCI-170" value="accounts_user" style="shape=table;startSize=30;container=1;collapsible=0;childLayout=tableLayout;fixedRows=1;rowLines=0;fontStyle=0;strokeColor=default;fontSize=16;rounded=1;align=center;fillColor=#FFFF99;" parent="1" vertex="1">
          <mxGeometry x="937.57" y="-510" width="270.00000000000045" height="277" as="geometry" />
        </mxCell>
        <mxCell id="WgDP39cw4mnOCj2XshCI-171" value="" style="shape=tableRow;horizontal=0;startSize=0;swimlaneHead=0;swimlaneBody=0;top=0;left=0;bottom=0;right=0;collapsible=0;dropTarget=0;fillColor=none;points=[[0,0.5],[1,0.5]];portConstraint=eastwest;strokeColor=inherit;fontSize=16;align=center;" parent="WgDP39cw4mnOCj2XshCI-170" vertex="1">
          <mxGeometry y="30" width="270.00000000000045" height="20" as="geometry" />
        </mxCell>
        <mxCell id="WgDP39cw4mnOCj2XshCI-172" value="id" style="shape=partialRectangle;html=1;whiteSpace=wrap;connectable=0;fillColor=none;top=0;left=0;bottom=0;right=0;overflow=hidden;pointerEvents=1;strokeColor=inherit;fontSize=16;align=center;" parent="WgDP39cw4mnOCj2XshCI-171" vertex="1">
          <mxGeometry width="130" height="20" as="geometry">
            <mxRectangle width="130" height="20" as="alternateBounds" />
          </mxGeometry>
        </mxCell>
        <mxCell id="WgDP39cw4mnOCj2XshCI-173" value="integer" style="shape=partialRectangle;html=1;whiteSpace=wrap;connectable=0;fillColor=none;top=0;left=0;bottom=0;right=0;align=center;spacingLeft=6;overflow=hidden;strokeColor=inherit;fontSize=16;" parent="WgDP39cw4mnOCj2XshCI-171" vertex="1">
          <mxGeometry x="130" width="140" height="20" as="geometry">
            <mxRectangle width="140" height="20" as="alternateBounds" />
          </mxGeometry>
        </mxCell>
        <mxCell id="WgDP39cw4mnOCj2XshCI-174" value="" style="shape=tableRow;horizontal=0;startSize=0;swimlaneHead=0;swimlaneBody=0;top=0;left=0;bottom=0;right=0;collapsible=0;dropTarget=0;fillColor=none;points=[[0,0.5],[1,0.5]];portConstraint=eastwest;strokeColor=inherit;fontSize=16;align=center;" parent="WgDP39cw4mnOCj2XshCI-170" vertex="1">
          <mxGeometry y="50" width="270.00000000000045" height="26" as="geometry" />
        </mxCell>
        <mxCell id="WgDP39cw4mnOCj2XshCI-175" value="username" style="shape=partialRectangle;html=1;whiteSpace=wrap;connectable=0;fillColor=none;top=0;left=0;bottom=0;right=0;overflow=hidden;strokeColor=inherit;fontSize=16;align=center;" parent="WgDP39cw4mnOCj2XshCI-174" vertex="1">
          <mxGeometry width="130" height="26" as="geometry">
            <mxRectangle width="130" height="26" as="alternateBounds" />
          </mxGeometry>
        </mxCell>
        <mxCell id="WgDP39cw4mnOCj2XshCI-176" value="varchar" style="shape=partialRectangle;html=1;whiteSpace=wrap;connectable=0;fillColor=none;top=0;left=0;bottom=0;right=0;align=center;spacingLeft=6;overflow=hidden;strokeColor=inherit;fontSize=16;" parent="WgDP39cw4mnOCj2XshCI-174" vertex="1">
          <mxGeometry x="130" width="140" height="26" as="geometry">
            <mxRectangle width="140" height="26" as="alternateBounds" />
          </mxGeometry>
        </mxCell>
        <mxCell id="WgDP39cw4mnOCj2XshCI-177" value="" style="shape=tableRow;horizontal=0;startSize=0;swimlaneHead=0;swimlaneBody=0;top=0;left=0;bottom=0;right=0;collapsible=0;dropTarget=0;fillColor=none;points=[[0,0.5],[1,0.5]];portConstraint=eastwest;strokeColor=inherit;fontSize=16;align=center;" parent="WgDP39cw4mnOCj2XshCI-170" vertex="1">
          <mxGeometry y="76" width="270.00000000000045" height="30" as="geometry" />
        </mxCell>
        <mxCell id="WgDP39cw4mnOCj2XshCI-178" value="password" style="shape=partialRectangle;html=1;whiteSpace=wrap;connectable=0;fillColor=none;top=0;left=0;bottom=0;right=0;overflow=hidden;strokeColor=inherit;fontSize=16;align=center;" parent="WgDP39cw4mnOCj2XshCI-177" vertex="1">
          <mxGeometry width="130" height="30" as="geometry">
            <mxRectangle width="130" height="30" as="alternateBounds" />
          </mxGeometry>
        </mxCell>
        <mxCell id="WgDP39cw4mnOCj2XshCI-179" value="varchar" style="shape=partialRectangle;html=1;whiteSpace=wrap;connectable=0;fillColor=none;top=0;left=0;bottom=0;right=0;align=center;spacingLeft=6;overflow=hidden;strokeColor=inherit;fontSize=16;" parent="WgDP39cw4mnOCj2XshCI-177" vertex="1">
          <mxGeometry x="130" width="140" height="30" as="geometry">
            <mxRectangle width="140" height="30" as="alternateBounds" />
          </mxGeometry>
        </mxCell>
        <mxCell id="WgDP39cw4mnOCj2XshCI-180" value="" style="shape=tableRow;horizontal=0;startSize=0;swimlaneHead=0;swimlaneBody=0;top=0;left=0;bottom=0;right=0;collapsible=0;dropTarget=0;fillColor=none;points=[[0,0.5],[1,0.5]];portConstraint=eastwest;strokeColor=inherit;fontSize=16;align=center;" parent="WgDP39cw4mnOCj2XshCI-170" vertex="1">
          <mxGeometry y="106" width="270.00000000000045" height="30" as="geometry" />
        </mxCell>
        <mxCell id="WgDP39cw4mnOCj2XshCI-181" value="email" style="shape=partialRectangle;html=1;whiteSpace=wrap;connectable=0;fillColor=none;top=0;left=0;bottom=0;right=0;overflow=hidden;strokeColor=inherit;fontSize=16;align=center;" parent="WgDP39cw4mnOCj2XshCI-180" vertex="1">
          <mxGeometry width="130" height="30" as="geometry">
            <mxRectangle width="130" height="30" as="alternateBounds" />
          </mxGeometry>
        </mxCell>
        <mxCell id="WgDP39cw4mnOCj2XshCI-182" value="varchar" style="shape=partialRectangle;html=1;whiteSpace=wrap;connectable=0;fillColor=none;top=0;left=0;bottom=0;right=0;align=center;spacingLeft=6;overflow=hidden;strokeColor=inherit;fontSize=16;" parent="WgDP39cw4mnOCj2XshCI-180" vertex="1">
          <mxGeometry x="130" width="140" height="30" as="geometry">
            <mxRectangle width="140" height="30" as="alternateBounds" />
          </mxGeometry>
        </mxCell>
        <mxCell id="WgDP39cw4mnOCj2XshCI-183" value="" style="shape=tableRow;horizontal=0;startSize=0;swimlaneHead=0;swimlaneBody=0;top=0;left=0;bottom=0;right=0;collapsible=0;dropTarget=0;fillColor=none;points=[[0,0.5],[1,0.5]];portConstraint=eastwest;strokeColor=inherit;fontSize=16;align=center;" parent="WgDP39cw4mnOCj2XshCI-170" vertex="1">
          <mxGeometry y="136" width="270.00000000000045" height="36" as="geometry" />
        </mxCell>
        <mxCell id="WgDP39cw4mnOCj2XshCI-184" value="nickname" style="shape=partialRectangle;html=1;whiteSpace=wrap;connectable=0;fillColor=none;top=0;left=0;bottom=0;right=0;overflow=hidden;strokeColor=inherit;fontSize=16;align=center;" parent="WgDP39cw4mnOCj2XshCI-183" vertex="1">
          <mxGeometry width="130" height="36" as="geometry">
            <mxRectangle width="130" height="36" as="alternateBounds" />
          </mxGeometry>
        </mxCell>
        <mxCell id="WgDP39cw4mnOCj2XshCI-185" value="varchar(30)" style="shape=partialRectangle;html=1;whiteSpace=wrap;connectable=0;fillColor=none;top=0;left=0;bottom=0;right=0;align=center;spacingLeft=6;overflow=hidden;strokeColor=inherit;fontSize=16;" parent="WgDP39cw4mnOCj2XshCI-183" vertex="1">
          <mxGeometry x="130" width="140" height="36" as="geometry">
            <mxRectangle width="140" height="36" as="alternateBounds" />
          </mxGeometry>
        </mxCell>
        <mxCell id="WgDP39cw4mnOCj2XshCI-186" value="" style="shape=tableRow;horizontal=0;startSize=0;swimlaneHead=0;swimlaneBody=0;top=0;left=0;bottom=0;right=0;collapsible=0;dropTarget=0;fillColor=none;points=[[0,0.5],[1,0.5]];portConstraint=eastwest;strokeColor=inherit;fontSize=16;align=center;" parent="WgDP39cw4mnOCj2XshCI-170" vertex="1">
          <mxGeometry y="172" width="270.00000000000045" height="41" as="geometry" />
        </mxCell>
        <mxCell id="WgDP39cw4mnOCj2XshCI-187" value="introduce" style="shape=partialRectangle;html=1;whiteSpace=wrap;connectable=0;fillColor=none;top=0;left=0;bottom=0;right=0;overflow=hidden;strokeColor=inherit;fontSize=16;align=center;" parent="WgDP39cw4mnOCj2XshCI-186" vertex="1">
          <mxGeometry width="130" height="41" as="geometry">
            <mxRectangle width="130" height="41" as="alternateBounds" />
          </mxGeometry>
        </mxCell>
        <mxCell id="WgDP39cw4mnOCj2XshCI-188" value="varchar(100)" style="shape=partialRectangle;html=1;whiteSpace=wrap;connectable=0;fillColor=none;top=0;left=0;bottom=0;right=0;align=center;spacingLeft=6;overflow=hidden;strokeColor=inherit;fontSize=16;" parent="WgDP39cw4mnOCj2XshCI-186" vertex="1">
          <mxGeometry x="130" width="140" height="41" as="geometry">
            <mxRectangle width="140" height="41" as="alternateBounds" />
          </mxGeometry>
        </mxCell>
        <mxCell id="WgDP39cw4mnOCj2XshCI-189" value="" style="shape=tableRow;horizontal=0;startSize=0;swimlaneHead=0;swimlaneBody=0;top=0;left=0;bottom=0;right=0;collapsible=0;dropTarget=0;fillColor=none;points=[[0,0.5],[1,0.5]];portConstraint=eastwest;strokeColor=inherit;fontSize=16;align=center;" parent="WgDP39cw4mnOCj2XshCI-170" vertex="1">
          <mxGeometry y="213" width="270.00000000000045" height="30" as="geometry" />
        </mxCell>
        <mxCell id="WgDP39cw4mnOCj2XshCI-190" value="followings" style="shape=partialRectangle;html=1;whiteSpace=wrap;connectable=0;fillColor=none;top=0;left=0;bottom=0;right=0;overflow=hidden;strokeColor=inherit;fontSize=16;align=center;" parent="WgDP39cw4mnOCj2XshCI-189" vertex="1">
          <mxGeometry width="130" height="30" as="geometry">
            <mxRectangle width="130" height="30" as="alternateBounds" />
          </mxGeometry>
        </mxCell>
        <mxCell id="WgDP39cw4mnOCj2XshCI-191" value="integer" style="shape=partialRectangle;html=1;whiteSpace=wrap;connectable=0;fillColor=none;top=0;left=0;bottom=0;right=0;align=center;spacingLeft=6;overflow=hidden;strokeColor=inherit;fontSize=16;" parent="WgDP39cw4mnOCj2XshCI-189" vertex="1">
          <mxGeometry x="130" width="140" height="30" as="geometry">
            <mxRectangle width="140" height="30" as="alternateBounds" />
          </mxGeometry>
        </mxCell>
        <mxCell id="WgDP39cw4mnOCj2XshCI-192" value="" style="shape=tableRow;horizontal=0;startSize=0;swimlaneHead=0;swimlaneBody=0;top=0;left=0;bottom=0;right=0;collapsible=0;dropTarget=0;fillColor=none;points=[[0,0.5],[1,0.5]];portConstraint=eastwest;strokeColor=inherit;fontSize=16;align=center;" parent="WgDP39cw4mnOCj2XshCI-170" vertex="1">
          <mxGeometry y="243" width="270.00000000000045" height="34" as="geometry" />
        </mxCell>
        <mxCell id="WgDP39cw4mnOCj2XshCI-193" value="playlist_names" style="shape=partialRectangle;html=1;whiteSpace=wrap;connectable=0;fillColor=none;top=0;left=0;bottom=0;right=0;overflow=hidden;strokeColor=inherit;fontSize=16;align=center;" parent="WgDP39cw4mnOCj2XshCI-192" vertex="1">
          <mxGeometry width="130" height="34" as="geometry">
            <mxRectangle width="130" height="34" as="alternateBounds" />
          </mxGeometry>
        </mxCell>
        <mxCell id="WgDP39cw4mnOCj2XshCI-194" value="varchar" style="shape=partialRectangle;html=1;whiteSpace=wrap;connectable=0;fillColor=none;top=0;left=0;bottom=0;right=0;align=center;spacingLeft=6;overflow=hidden;strokeColor=inherit;fontSize=16;" parent="WgDP39cw4mnOCj2XshCI-192" vertex="1">
          <mxGeometry x="130" width="140" height="34" as="geometry">
            <mxRectangle width="140" height="34" as="alternateBounds" />
          </mxGeometry>
        </mxCell>
        <mxCell id="WgDP39cw4mnOCj2XshCI-195" value="" style="line;strokeWidth=1;html=1;perimeter=backbonePerimeter;points=[];outlineConnect=0;align=center;" parent="1" vertex="1">
          <mxGeometry x="937.57" y="318" width="270" height="10" as="geometry" />
        </mxCell>
        <mxCell id="WgDP39cw4mnOCj2XshCI-196" value="" style="line;strokeWidth=1;html=1;perimeter=backbonePerimeter;points=[];outlineConnect=0;align=center;" parent="1" vertex="1">
          <mxGeometry x="937.57" y="60" width="270" height="10" as="geometry" />
        </mxCell>
        <mxCell id="WgDP39cw4mnOCj2XshCI-197" value="accounts_user_followers" style="shape=table;startSize=30;container=1;collapsible=0;childLayout=tableLayout;fixedRows=1;rowLines=0;fontStyle=0;strokeColor=default;fontSize=16;rounded=1;align=center;fillColor=#FFFF99;" parent="1" vertex="1">
          <mxGeometry x="1290" y="-410" width="230" height="134" as="geometry" />
        </mxCell>
        <mxCell id="WgDP39cw4mnOCj2XshCI-198" value="" style="shape=tableRow;horizontal=0;startSize=0;swimlaneHead=0;swimlaneBody=0;top=0;left=0;bottom=0;right=0;collapsible=0;dropTarget=0;fillColor=none;points=[[0,0.5],[1,0.5]];portConstraint=eastwest;strokeColor=inherit;fontSize=16;align=center;" parent="WgDP39cw4mnOCj2XshCI-197" vertex="1">
          <mxGeometry y="30" width="230" height="20" as="geometry" />
        </mxCell>
        <mxCell id="WgDP39cw4mnOCj2XshCI-199" value="id" style="shape=partialRectangle;html=1;whiteSpace=wrap;connectable=0;fillColor=none;top=0;left=0;bottom=0;right=0;overflow=hidden;pointerEvents=1;strokeColor=inherit;fontSize=16;align=center;" parent="WgDP39cw4mnOCj2XshCI-198" vertex="1">
          <mxGeometry width="111" height="20" as="geometry">
            <mxRectangle width="111" height="20" as="alternateBounds" />
          </mxGeometry>
        </mxCell>
        <mxCell id="WgDP39cw4mnOCj2XshCI-200" value="integer" style="shape=partialRectangle;html=1;whiteSpace=wrap;connectable=0;fillColor=none;top=0;left=0;bottom=0;right=0;align=center;spacingLeft=6;overflow=hidden;strokeColor=inherit;fontSize=16;" parent="WgDP39cw4mnOCj2XshCI-198" vertex="1">
          <mxGeometry x="111" width="119" height="20" as="geometry">
            <mxRectangle width="119" height="20" as="alternateBounds" />
          </mxGeometry>
        </mxCell>
        <mxCell id="WgDP39cw4mnOCj2XshCI-201" value="" style="shape=tableRow;horizontal=0;startSize=0;swimlaneHead=0;swimlaneBody=0;top=0;left=0;bottom=0;right=0;collapsible=0;dropTarget=0;fillColor=none;points=[[0,0.5],[1,0.5]];portConstraint=eastwest;strokeColor=inherit;fontSize=16;align=center;" parent="WgDP39cw4mnOCj2XshCI-197" vertex="1">
          <mxGeometry y="50" width="230" height="40" as="geometry" />
        </mxCell>
        <mxCell id="WgDP39cw4mnOCj2XshCI-202" value="from_user_id" style="shape=partialRectangle;html=1;whiteSpace=wrap;connectable=0;fillColor=none;top=0;left=0;bottom=0;right=0;overflow=hidden;strokeColor=inherit;fontSize=16;align=center;" parent="WgDP39cw4mnOCj2XshCI-201" vertex="1">
          <mxGeometry width="111" height="40" as="geometry">
            <mxRectangle width="111" height="40" as="alternateBounds" />
          </mxGeometry>
        </mxCell>
        <mxCell id="WgDP39cw4mnOCj2XshCI-203" value="integer" style="shape=partialRectangle;html=1;whiteSpace=wrap;connectable=0;fillColor=none;top=0;left=0;bottom=0;right=0;align=center;spacingLeft=6;overflow=hidden;strokeColor=inherit;fontSize=16;" parent="WgDP39cw4mnOCj2XshCI-201" vertex="1">
          <mxGeometry x="111" width="119" height="40" as="geometry">
            <mxRectangle width="119" height="40" as="alternateBounds" />
          </mxGeometry>
        </mxCell>
        <mxCell id="WgDP39cw4mnOCj2XshCI-204" value="" style="shape=tableRow;horizontal=0;startSize=0;swimlaneHead=0;swimlaneBody=0;top=0;left=0;bottom=0;right=0;collapsible=0;dropTarget=0;fillColor=none;points=[[0,0.5],[1,0.5]];portConstraint=eastwest;strokeColor=inherit;fontSize=16;align=center;" parent="WgDP39cw4mnOCj2XshCI-197" vertex="1">
          <mxGeometry y="90" width="230" height="44" as="geometry" />
        </mxCell>
        <mxCell id="WgDP39cw4mnOCj2XshCI-205" value="to_user_id" style="shape=partialRectangle;html=1;whiteSpace=wrap;connectable=0;fillColor=none;top=0;left=0;bottom=0;right=0;overflow=hidden;strokeColor=inherit;fontSize=16;align=center;" parent="WgDP39cw4mnOCj2XshCI-204" vertex="1">
          <mxGeometry width="111" height="44" as="geometry">
            <mxRectangle width="111" height="44" as="alternateBounds" />
          </mxGeometry>
        </mxCell>
        <mxCell id="WgDP39cw4mnOCj2XshCI-206" value="integer" style="shape=partialRectangle;html=1;whiteSpace=wrap;connectable=0;fillColor=none;top=0;left=0;bottom=0;right=0;align=center;spacingLeft=6;overflow=hidden;strokeColor=inherit;fontSize=16;" parent="WgDP39cw4mnOCj2XshCI-204" vertex="1">
          <mxGeometry x="111" width="119" height="44" as="geometry">
            <mxRectangle width="119" height="44" as="alternateBounds" />
          </mxGeometry>
        </mxCell>
        <mxCell id="WgDP39cw4mnOCj2XshCI-207" value="" style="line;strokeWidth=1;html=1;perimeter=backbonePerimeter;points=[];outlineConnect=0;align=center;" parent="1" vertex="1">
          <mxGeometry x="937.57" y="-460" width="270" height="10" as="geometry" />
        </mxCell>
        <mxCell id="WgDP39cw4mnOCj2XshCI-208" value="" style="line;strokeWidth=1;html=1;perimeter=backbonePerimeter;points=[];outlineConnect=0;align=center;" parent="1" vertex="1">
          <mxGeometry x="1290" y="-360" width="230" height="10" as="geometry" />
        </mxCell>
        <mxCell id="WgDP39cw4mnOCj2XshCI-209" value="" style="line;strokeWidth=1;html=1;perimeter=backbonePerimeter;points=[];outlineConnect=0;align=center;" parent="1" vertex="1">
          <mxGeometry x="1290" y="-50" width="230" height="10" as="geometry" />
        </mxCell>
        <mxCell id="WgDP39cw4mnOCj2XshCI-211" value="" style="edgeStyle=entityRelationEdgeStyle;fontSize=12;html=1;endArrow=ERzeroToMany;endFill=1;rounded=0;strokeColor=#000000;fontColor=#143642;fillColor=#FAE5C7;entryX=0.999;entryY=0.595;entryDx=0;entryDy=0;entryPerimeter=0;" parent="1" source="WgDP39cw4mnOCj2XshCI-53" target="WgDP39cw4mnOCj2XshCI-166" edge="1">
          <mxGeometry width="100" height="100" relative="1" as="geometry">
            <mxPoint x="460" y="-121" as="sourcePoint" />
            <mxPoint x="540" y="-210" as="targetPoint" />
          </mxGeometry>
        </mxCell>
        <mxCell id="WgDP39cw4mnOCj2XshCI-214" value="" style="edgeStyle=entityRelationEdgeStyle;fontSize=12;html=1;endArrow=ERzeroToMany;endFill=1;strokeColor=#000000;fontColor=#143642;fillColor=#FAE5C7;exitX=0.003;exitY=0.513;exitDx=0;exitDy=0;exitPerimeter=0;entryX=0.995;entryY=0.605;entryDx=0;entryDy=0;entryPerimeter=0;curved=1;" parent="1" source="WgDP39cw4mnOCj2XshCI-53" target="WgDP39cw4mnOCj2XshCI-143" edge="1">
          <mxGeometry width="100" height="100" relative="1" as="geometry">
            <mxPoint x="550" y="30" as="sourcePoint" />
            <mxPoint x="650" y="-70" as="targetPoint" />
          </mxGeometry>
        </mxCell>
        <mxCell id="WgDP39cw4mnOCj2XshCI-217" value="" style="edgeStyle=entityRelationEdgeStyle;fontSize=12;html=1;endArrow=ERzeroToMany;endFill=1;strokeColor=#000000;fontColor=#143642;fillColor=#FAE5C7;entryX=0.004;entryY=0.481;entryDx=0;entryDy=0;entryPerimeter=0;exitX=1.004;exitY=0.45;exitDx=0;exitDy=0;exitPerimeter=0;rounded=1;" parent="1" source="WgDP39cw4mnOCj2XshCI-223" target="WgDP39cw4mnOCj2XshCI-46" edge="1">
          <mxGeometry width="100" height="100" relative="1" as="geometry">
            <mxPoint x="1208.6499999999999" y="-151.99" as="sourcePoint" />
            <mxPoint x="1257.57" y="-70" as="targetPoint" />
          </mxGeometry>
        </mxCell>
        <mxCell id="WgDP39cw4mnOCj2XshCI-219" value="" style="edgeStyle=entityRelationEdgeStyle;fontSize=12;html=1;endArrow=ERmandOne;startArrow=ERmandOne;strokeColor=#000000;fontColor=#143642;fillColor=#FAE5C7;curved=1;" parent="1" source="WgDP39cw4mnOCj2XshCI-8" target="WgDP39cw4mnOCj2XshCI-53" edge="1">
          <mxGeometry width="100" height="100" relative="1" as="geometry">
            <mxPoint x="940" y="310" as="sourcePoint" />
            <mxPoint x="870" y="-20" as="targetPoint" />
          </mxGeometry>
        </mxCell>
        <mxCell id="WgDP39cw4mnOCj2XshCI-221" value="" style="edgeStyle=entityRelationEdgeStyle;fontSize=12;html=1;endArrow=ERzeroToMany;endFill=1;rounded=1;strokeColor=#000000;fontColor=#143642;fillColor=#FAE5C7;entryX=0.996;entryY=0.601;entryDx=0;entryDy=0;entryPerimeter=0;" parent="1" source="WgDP39cw4mnOCj2XshCI-2" target="WgDP39cw4mnOCj2XshCI-27" edge="1">
          <mxGeometry width="100" height="100" relative="1" as="geometry">
            <mxPoint x="1237.57" y="300" as="sourcePoint" />
            <mxPoint x="1337.57" y="200" as="targetPoint" />
          </mxGeometry>
        </mxCell>
        <mxCell id="WgDP39cw4mnOCj2XshCI-222" value="communitys_playlist" style="shape=table;startSize=30;container=1;collapsible=0;childLayout=tableLayout;fixedRows=1;rowLines=0;fontStyle=0;strokeColor=default;fontSize=16;rounded=1;align=center;fillColor=#CCFFCC;" parent="1" vertex="1">
          <mxGeometry x="937.57" y="-180" width="269" height="130" as="geometry" />
        </mxCell>
        <mxCell id="WgDP39cw4mnOCj2XshCI-223" value="" style="shape=tableRow;horizontal=0;startSize=0;swimlaneHead=0;swimlaneBody=0;top=0;left=0;bottom=0;right=0;collapsible=0;dropTarget=0;fillColor=none;points=[[0,0.5],[1,0.5]];portConstraint=eastwest;strokeColor=inherit;fontSize=16;align=center;" parent="WgDP39cw4mnOCj2XshCI-222" vertex="1">
          <mxGeometry y="30" width="269" height="20" as="geometry" />
        </mxCell>
        <mxCell id="WgDP39cw4mnOCj2XshCI-224" value="id" style="shape=partialRectangle;html=1;whiteSpace=wrap;connectable=0;fillColor=none;top=0;left=0;bottom=0;right=0;overflow=hidden;pointerEvents=1;strokeColor=inherit;fontSize=16;align=center;" parent="WgDP39cw4mnOCj2XshCI-223" vertex="1">
          <mxGeometry width="134" height="20" as="geometry">
            <mxRectangle width="134" height="20" as="alternateBounds" />
          </mxGeometry>
        </mxCell>
        <mxCell id="WgDP39cw4mnOCj2XshCI-225" value="integer" style="shape=partialRectangle;html=1;whiteSpace=wrap;connectable=0;fillColor=none;top=0;left=0;bottom=0;right=0;align=center;spacingLeft=6;overflow=hidden;strokeColor=inherit;fontSize=16;" parent="WgDP39cw4mnOCj2XshCI-223" vertex="1">
          <mxGeometry x="134" width="135" height="20" as="geometry">
            <mxRectangle width="135" height="20" as="alternateBounds" />
          </mxGeometry>
        </mxCell>
        <mxCell id="WgDP39cw4mnOCj2XshCI-226" value="" style="shape=tableRow;horizontal=0;startSize=0;swimlaneHead=0;swimlaneBody=0;top=0;left=0;bottom=0;right=0;collapsible=0;dropTarget=0;fillColor=none;points=[[0,0.5],[1,0.5]];portConstraint=eastwest;strokeColor=inherit;fontSize=16;align=center;" parent="WgDP39cw4mnOCj2XshCI-222" vertex="1">
          <mxGeometry y="50" width="269" height="20" as="geometry" />
        </mxCell>
        <mxCell id="WgDP39cw4mnOCj2XshCI-227" value="user_id" style="shape=partialRectangle;html=1;whiteSpace=wrap;connectable=0;fillColor=none;top=0;left=0;bottom=0;right=0;overflow=hidden;strokeColor=inherit;fontSize=16;align=center;" parent="WgDP39cw4mnOCj2XshCI-226" vertex="1">
          <mxGeometry width="134" height="20" as="geometry">
            <mxRectangle width="134" height="20" as="alternateBounds" />
          </mxGeometry>
        </mxCell>
        <mxCell id="WgDP39cw4mnOCj2XshCI-228" value="integer" style="shape=partialRectangle;html=1;whiteSpace=wrap;connectable=0;fillColor=none;top=0;left=0;bottom=0;right=0;align=center;spacingLeft=6;overflow=hidden;strokeColor=inherit;fontSize=16;" parent="WgDP39cw4mnOCj2XshCI-226" vertex="1">
          <mxGeometry x="134" width="135" height="20" as="geometry">
            <mxRectangle width="135" height="20" as="alternateBounds" />
          </mxGeometry>
        </mxCell>
        <mxCell id="WgDP39cw4mnOCj2XshCI-229" value="" style="shape=tableRow;horizontal=0;startSize=0;swimlaneHead=0;swimlaneBody=0;top=0;left=0;bottom=0;right=0;collapsible=0;dropTarget=0;fillColor=none;points=[[0,0.5],[1,0.5]];portConstraint=eastwest;strokeColor=inherit;fontSize=16;align=center;" parent="WgDP39cw4mnOCj2XshCI-222" vertex="1">
          <mxGeometry y="70" width="269" height="30" as="geometry" />
        </mxCell>
        <mxCell id="WgDP39cw4mnOCj2XshCI-230" value="title" style="shape=partialRectangle;html=1;whiteSpace=wrap;connectable=0;fillColor=none;top=0;left=0;bottom=0;right=0;overflow=hidden;strokeColor=inherit;fontSize=16;align=center;" parent="WgDP39cw4mnOCj2XshCI-229" vertex="1">
          <mxGeometry width="134" height="30" as="geometry">
            <mxRectangle width="134" height="30" as="alternateBounds" />
          </mxGeometry>
        </mxCell>
        <mxCell id="WgDP39cw4mnOCj2XshCI-231" value="varchar" style="shape=partialRectangle;html=1;whiteSpace=wrap;connectable=0;fillColor=none;top=0;left=0;bottom=0;right=0;align=center;spacingLeft=6;overflow=hidden;strokeColor=inherit;fontSize=16;" parent="WgDP39cw4mnOCj2XshCI-229" vertex="1">
          <mxGeometry x="134" width="135" height="30" as="geometry">
            <mxRectangle width="135" height="30" as="alternateBounds" />
          </mxGeometry>
        </mxCell>
        <mxCell id="WgDP39cw4mnOCj2XshCI-232" value="" style="shape=tableRow;horizontal=0;startSize=0;swimlaneHead=0;swimlaneBody=0;top=0;left=0;bottom=0;right=0;collapsible=0;dropTarget=0;fillColor=none;points=[[0,0.5],[1,0.5]];portConstraint=eastwest;strokeColor=inherit;fontSize=16;align=center;" parent="WgDP39cw4mnOCj2XshCI-222" vertex="1">
          <mxGeometry y="100" width="269" height="30" as="geometry" />
        </mxCell>
        <mxCell id="WgDP39cw4mnOCj2XshCI-233" value="movie_id_list" style="shape=partialRectangle;html=1;whiteSpace=wrap;connectable=0;fillColor=none;top=0;left=0;bottom=0;right=0;overflow=hidden;strokeColor=inherit;fontSize=16;align=center;" parent="WgDP39cw4mnOCj2XshCI-232" vertex="1">
          <mxGeometry width="134" height="30" as="geometry">
            <mxRectangle width="134" height="30" as="alternateBounds" />
          </mxGeometry>
        </mxCell>
        <mxCell id="WgDP39cw4mnOCj2XshCI-234" value="integer" style="shape=partialRectangle;html=1;whiteSpace=wrap;connectable=0;fillColor=none;top=0;left=0;bottom=0;right=0;align=center;spacingLeft=6;overflow=hidden;strokeColor=inherit;fontSize=16;" parent="WgDP39cw4mnOCj2XshCI-232" vertex="1">
          <mxGeometry x="134" width="135" height="30" as="geometry">
            <mxRectangle width="135" height="30" as="alternateBounds" />
          </mxGeometry>
        </mxCell>
        <mxCell id="WgDP39cw4mnOCj2XshCI-235" value="" style="line;strokeWidth=1;html=1;perimeter=backbonePerimeter;points=[];outlineConnect=0;align=center;" parent="1" vertex="1">
          <mxGeometry x="940" y="-130" width="270" height="10" as="geometry" />
        </mxCell>
        <mxCell id="WgDP39cw4mnOCj2XshCI-236" value="" style="edgeStyle=entityRelationEdgeStyle;fontSize=12;html=1;endArrow=ERzeroToMany;endFill=1;strokeColor=#000000;fontColor=#143642;fillColor=#FAE5C7;exitX=0.009;exitY=0.45;exitDx=0;exitDy=0;exitPerimeter=0;curved=1;entryX=0.004;entryY=0.678;entryDx=0;entryDy=0;entryPerimeter=0;" parent="1" source="WgDP39cw4mnOCj2XshCI-171" target="WgDP39cw4mnOCj2XshCI-226" edge="1">
          <mxGeometry width="100" height="100" relative="1" as="geometry">
            <mxPoint x="877.57" y="-330" as="sourcePoint" />
            <mxPoint x="937.57" y="-85" as="targetPoint" />
          </mxGeometry>
        </mxCell>
        <mxCell id="WgDP39cw4mnOCj2XshCI-237" value="" style="edgeStyle=entityRelationEdgeStyle;fontSize=12;html=1;endArrow=ERmany;startArrow=ERmany;strokeColor=#000000;fontColor=#143642;fillColor=#FAE5C7;exitX=0.999;exitY=0.636;exitDx=0;exitDy=0;exitPerimeter=0;rounded=1;" parent="1" source="WgDP39cw4mnOCj2XshCI-171" target="WgDP39cw4mnOCj2XshCI-198" edge="1">
          <mxGeometry width="100" height="100" relative="1" as="geometry">
            <mxPoint x="1147.57" y="-320" as="sourcePoint" />
            <mxPoint x="1247.57" y="-420" as="targetPoint" />
          </mxGeometry>
        </mxCell>
        <mxCell id="WgDP39cw4mnOCj2XshCI-238" value="" style="edgeStyle=entityRelationEdgeStyle;fontSize=12;html=1;endArrow=ERzeroToMany;endFill=1;strokeColor=#A8201A;fontColor=#143642;fillColor=#FAE5C7;curved=1;" parent="1" source="WgDP39cw4mnOCj2XshCI-171" target="WgDP39cw4mnOCj2XshCI-49" edge="1">
          <mxGeometry width="100" height="100" relative="1" as="geometry">
            <mxPoint x="1250" y="-160" as="sourcePoint" />
            <mxPoint x="1350" y="-260" as="targetPoint" />
          </mxGeometry>
        </mxCell>
      </root>
    </mxGraphModel>
  </diagram>
</mxfile>
